<svg width="64" height="64" xmlns="http://www.w3.org/2000/svg">

 <g>
  <title>background</title>
  <rect fill="none" id="canvas_background" height="402" width="582" y="-1" x="-1"/>
 </g>
 <g>
  <title>Layer 1</title>
  <path fill="#ffffff" id="Fill-41" d="m32.1,55.9c-13.2,0 -23.9,-10.7 -23.9,-23.9c0,-13.2 10.7,-23.9 23.9,-23.9s23.9,10.6 23.9,23.8c0,13.2 -10.7,24 -23.9,24l0,0zm0,-45.3c-11.7,0 -21.3,9.6 -21.3,21.3c0,11.7 9.6,21.3 21.3,21.3s21.3,-9.6 21.3,-21.3c0,-11.7 -9.6,-21.3 -21.3,-21.3l0,0z" class="st0"/>
  <polygon fill="#ffffff" points="19.299999237060547,30.5 44.79999923706055,30.5 44.79999923706055,33.30000305175781 19.299999237060547,33.30000305175781 " id="Fill-42" class="st0"/>
 </g>
</svg>