<svg width="30" height="45" xmlns="http://www.w3.org/2000/svg">

 <g>
  <title>background</title>
  <rect fill="none" id="canvas_background" height="402" width="582" y="-1" x="-1"/>
 </g>
 <g>
  <title>Layer 1</title>
  <polygon fill="#25beed" id="svg_3" points="10,4 10,6.562 14,3.36 14,10 16,10 16,3.361 20,6.562 20,4 14.998,0    "/>
  <path fill="#25beed" id="svg_5" d="m1,31c-0.553,0 -1,-0.449 -1,-1c0,-8.271 6.729,-15 15,-15s15,6.729 15,14.999c0,0.553 -0.447,1 -1,1s-1,-0.447 -1,-1c0,-7.168 -5.832,-12.999 -13,-12.999s-13,5.831 -13,13c0,0.551 -0.447,1 -1,1"/>
  <path fill="#25beed" id="svg_6" d="m14.98,34.989c-6.018,0 -5.127,-7.31 -5.127,-7.31s1.027,-2.315 5.127,-2.315c4.102,0 5.17,2.315 5.17,2.315s0.846,7.31 -5.17,7.31m0.02,-11.989c-6.285,0 -8.113,5.678 -8.113,19.004l0,0.6c2.34,1.51 5.119,2.396 8.113,2.396c2.992,0 5.773,-0.887 8.113,-2.396l0,-0.6c0,-13.326 -1.83,-19.004 -8.113,-19.004"/>
 </g>
</svg>