<?xml version="1.0" encoding="utf-8"?>
<!-- Generator: Adobe Illustrator 22.1.0, SVG Export Plug-In . SVG Version: 6.00 Build 0)  -->
<svg version="1.1" id="Слой_1" xmlns="http://www.w3.org/2000/svg" xmlns:xlink="http://www.w3.org/1999/xlink" x="0px" y="0px"
	 viewBox="0 0 19 19.9" style="enable-background:new 0 0 19 19.9;" xml:space="preserve">
<style type="text/css">
	.st0{fill:none;}
	.st1{fill:none;stroke:#000000;stroke-width:1.5;stroke-miterlimit:2;}
	.st2{fill:none;stroke:#000000;stroke-width:1.5;stroke-linejoin:round;stroke-miterlimit:2;}
</style>
<path class="st0" d="M-23.5-9.4h567.9v477.8H-23.5V-9.4z"/>
<g>
	<path class="st1" d="M0.7,16.6V3.6c0-1.3,0.9-2.4,2-2.4h13.7c1.1,0,2,1.1,2,2.4v13.1c0,1.3-0.9,2.4-2,2.4H2.7
		C1.6,19,0.7,17.9,0.7,16.6z"/>
	<path class="st2" d="M3.7,14.3h5.9"/>
	<path d="M19,4.6H0V2.4C0,1.1,0.9,0,1.9,0h15.2c1,0,1.9,1.1,1.9,2.4V4.6z"/>
	<path d="M14.1,13.3c0-0.4-0.1-0.6-0.3-0.8c-0.2-0.2-0.5-0.4-1-0.6c-0.7-0.2-1.3-0.6-1.7-1c-0.4-0.4-0.6-1-0.6-1.5
		c0-0.6,0.2-1.2,0.5-1.5c0.3-0.4,0.8-0.6,1.4-0.7V5.9h0.8v1.2c0.6,0.1,1.1,0.4,1.4,0.8c0.3,0.5,0.5,1,0.5,1.7h-1.2
		c0-0.5-0.1-0.8-0.3-1.1c0-0.1-0.2-0.2-0.6-0.2c-0.4,0-0.6,0.1-0.8,0.4S12,9.2,12,9.5s0.1,0.6,0.3,0.8c0.2,0.2,0.5,0.4,1,0.6
		c0.7,0.2,1.3,0.6,1.6,1c0.4,0.4,0.5,1,0.5,1.5c0,0.6-0.2,1.2-0.5,1.5c-0.3,0.4-0.9,0.6-1.5,0.7v1h-0.8v-1.1
		c-0.6-0.1-1.1-0.4-1.5-0.7c-0.4-0.5-0.6-1.1-0.6-1.8h1.2c0,0.5,0.1,1,0.4,1.1c0.2,0.2,0.5,0.4,0.9,0.4c0.4,0,0.7-0.1,0.9-0.4
		C14,13.9,14.1,13.7,14.1,13.3z"/>
</g>
</svg>
