<svg id="Layer_1" xmlns="http://www.w3.org/2000/svg" viewBox="0 0 715.5 718.5"><style>.st0{fill:#fff}</style><path class="st0" d="M194.2 11.9c7.1-.7 14.3-1.1 21.5-1.1h281.9c17.9-.2 35.8 1.7 53.1 6 38.5 9.4 74 30.4 101 59.3 25.9 27.5 44.1 62.3 51.7 99.3 3.4 16.4 4.6 33.1 4.2 49.8v263.9c-.1 9.7.3 19.4-.6 29.1-2.5 35-14.3 69.3-33.8 98.5-15.2 23-35.1 42.8-58.1 58-28.9 19.3-62.9 31.1-97.6 33.7-10.6.9-21.3.6-32 .6h-265c-17.4.3-34.8-1.4-51.8-5.3-34.7-8-67.2-25.4-93.3-49.6-26-24-45.8-54.9-56.5-88.6-6.6-20.5-9.8-41.9-9.8-63.4v-286c.1-36.8 10.4-73.5 29.4-105 22.6-37.3 57-67.2 97.1-84.1 18.6-7.9 38.5-13 58.6-15.1zm12.9 30.9c-20.1 1-40.1 5.4-58.8 13.2-30.2 12.5-56.7 33.8-75.5 60.5-18 25.4-28.9 55.7-31.3 86.8-.7 8-.5 16-.6 24v277c.1 42.4 16.4 84.4 44.9 115.7 24.7 27.5 58.4 46.8 94.6 54.1 21.1 4.6 42.7 3.3 64.1 3.5h255c16.5.1 33.1-2 49.1-6.5 32.5-9 62.2-27.9 84.3-53.4 23.9-27.3 38.9-62.2 42.2-98.4 1-10 .7-20.1.8-30.1v-267c.2-15.8-1.2-31.6-5.1-47-8.2-33.6-26.8-64.6-52.5-87.8-27.6-25.1-63.5-40.8-100.7-44.1-9.7-1-19.4-.7-29-.8H318.5c-37 .2-74.2-.2-111.4.3z"/><path class="st0" d="M541.1 138.8c15.1-4.3 32.3 4.8 37.6 19.5 5.1 12.7.6 28.4-10.4 36.5-9.9 7.8-24.5 8.7-35.2 2.2-10.6-6-17-18.5-15.6-30.7 1.1-12.9 11-24.4 23.6-27.5zM351 185.6c47.6-2.3 95.7 16.2 129.5 49.8 24.1 23.5 41.2 54.1 48.5 87 8.5 38 3.8 78.9-13.4 113.8-15.5 31.9-40.9 58.8-71.8 76.1-32.2 18.3-70.4 25.6-107.1 21-33.4-4.1-65.4-18.3-91-40.1-30-25.4-51.2-61.1-58.6-99.8-6.4-33-3.1-67.9 9.6-99 13-32.1 35.9-60.1 64.7-79.4 26.4-17.8 57.8-28.2 89.6-29.4zm-7.8 32.4c-14.6 1.5-29 5.3-42.4 11.3-28.6 12.5-52.8 34.8-67.7 62.2-14.8 26.8-20.3 58.5-16 88.8 3.3 23.6 12.7 46.4 27.1 65.5 19.2 25.7 47.3 44.6 78.4 52.5 35 9.1 73.5 4.4 105.1-13.2 29-15.9 52-42.2 64-73 14.5-36.8 12.8-79.5-4.8-115-13.3-27.4-35.7-50.2-62.9-64.1-24.7-12.8-53.2-18-80.8-15z"/></svg>