<svg id="Layer_1" xmlns="http://www.w3.org/2000/svg" viewBox="0 0 512 512"><style>.st0{fill:#1d1d1b}</style><path class="st0" d="M96.4 0h2.3c5.3 4.1 9.4 9.5 13.4 14.8 15.7 21.8 29.4 44.9 42.8 68.2 7.2 12.9 14.5 25.9 20.6 39.4.9 2.3 2.1 4.7 2.1 7.3-1 3-3.5 5.1-5.6 7.3-13.3 12.5-28.1 23.1-40.8 36.2-3.6 3.9-8.1 8.5-6.6 14.3 3 14.9 8.7 29.2 14.9 43.1 15.1 33.1 35.6 63.8 60.4 90.5 21.1 22.8 45.6 42.8 73.8 56.1 14.9 6.9 30.8 12.2 47.3 13.3 6.3.3 13.5.6 18.3-4.1 13.5-11.8 25.1-25.6 39.1-36.9 3.5-2.7 8.1-6.1 12.7-3.6 13.2 5.9 25.5 13.6 37.9 21 19.9 12.2 39.6 24.8 58.6 38.4 8.5 6.2 17.2 12.3 24.3 20.2v2.1c-8.2 10.6-19 18.7-29.2 27.2-17 13.5-34.4 26.5-52.3 38.7-9.9 6.8-20 13.5-31 18.5h-15.8c-37.9-3.2-74-17.2-107-35.6-36.7-20.5-70.2-46.5-101.2-74.8C122.9 353 75.4 298 40.9 235.1 21.2 198.4 5 159 0 117.4v-4.9c5-8.9 11.2-17 17.4-25.2 16.7-21.8 34.4-42.8 52.9-63.1C78.5 15.7 86.5 6.7 96.4 0z"/><path class="st0" d="M267.5 0h7.9c22.5 1.5 44.9 5.1 66.2 12.3 59.6 19.2 111 62.3 140.6 117.4 18 33.1 27.8 70.3 29.7 107.9v6.8c-14.6 1.8-29.2 4.4-43.9 6 .4-41.9-12-84-36-118.4-20-28.9-47.5-52.6-79.1-67.8-28.3-13.7-59.9-20.5-91.3-20.3 1.5-14.7 4.2-29.3 5.9-43.9z"/><path class="st0" d="M252.2 109.1c16.3-1.8 32.9-.1 48.7 4 31.5 8.1 59.8 28 78.2 54.9 18.4 26.5 26.9 59.7 23.8 91.8-14.7 2.1-29.4 4.2-44.1 6.2.2-3.4.7-6.7 1.1-10.1 1.8-21.1-3.5-42.8-15.2-60.5-13.7-21.1-35.9-36.5-60.6-41.5-12.5-2.9-25.4-2.4-38-.6 1.9-14.7 4-29.5 6.1-44.2z"/></svg>