<svg xmlns="http://www.w3.org/2000/svg" viewBox="0 0 372 312"><path d="M232.1 8.1c16.1-4.3 33.6-3.4 49.1 3 9.3 3.7 17.7 9.4 24.9 16.4 13-2.9 25.4-7.9 36.9-14.6 2.6-1.5 5.8-3 8.7-1.4 3.2 1.4 4.8 5.3 3.6 8.6-2.7 9.1-7.5 17.5-13.1 25.1 4.7-1.4 9.2-3.6 13.8-5.3 4.6-1.8 10.1 3 9.3 7.7-4.5 8.7-11.1 16.1-17.5 23.5-5.5 5.8-11.3 11.2-17.6 16 1.1 61.7-23.9 123.9-69.2 166.1-22 20.7-49 36.2-78 44.8-50.8 14.9-107.5 10.5-154.5-14.3-6-2.9-11.5-6.4-17.2-9.9-2.4-1.4-4.5-3.8-4.9-6.7.5-4 4.2-7.5 8.4-6.8 14.8.9 29.8 1.1 44.3-2.4 13.1-2.8 25.7-7.8 37.3-14.3 1.1-.6 2-1.5 3-2.3-25.1-6.9-45.9-27.2-53.5-52.2-1.1-3.2.3-7.2 3.5-8.5 1.5-.5 3.2-.7 4.8-1C33 165 20.4 139.4 20.5 114c-.2-3.7 2.8-7.1 6.4-7.5 3.7.1 6.9 2.3 10.1 3.9C28.2 97.9 22.5 83.3 21.5 68c-1.2-15.8 2.3-31.8 10.1-45.6 1.5-2.6 4.7-4.3 7.7-3.5 2.9.8 4.8 3.2 6.5 5.4C77.5 63.2 124.9 88.9 175 93.7c-1.5-17.5 2.1-35.5 11.3-50.5 10-17 26.7-29.9 45.8-35.1zm-29.9 36.2c-10.7 13.9-15.5 32.3-13 49.7.4 3.3 1.8 6.7.4 10-1.1 2.6-3.8 4.3-6.6 4.2-52.5-2.4-103.5-26.5-139.2-65-1.4-1.6-2.9-3.1-4.5-4.5-4 10.9-5.2 22.8-3.3 34.2 2.5 16.8 12 32.4 25.7 42.4 1.7 1.3 3.6 2.7 4.2 5 1.8 4.4-2.3 9.4-6.9 9-8.1-.3-16.3-1.8-23.8-4.7 3.5 23.2 20.1 44.3 42.5 51.8 3.5 1.3 7.3 1.6 10.5 3.5 4.2 2.9 3.3 10.3-1.6 11.9-7.5 2.6-15.6 3-23.5 3.1 9.3 18.5 28 32.3 48.8 34.7 3.4.4 7.1-.2 10.1 1.8 1.8 1 2.4 3 3.4 4.6-.4 2.4-1 5.1-3.1 6.6-22.9 18.6-51.5 29.6-80.9 32.1 15.8 7.2 32.4 12.5 49.5 15.4 42.4 6.7 87.3.1 124.9-21 25.6-14.3 47.5-34.9 63.9-59.1 23.3-34.2 36-75.4 36.5-116.8.4-5-1.8-11.3 2.8-15 6.7-5.3 13.1-10.9 18.9-17.1-6.7 1.2-13.3 3.1-20 3.5-3.8.3-6.4-3.1-7.4-6.4.5-2.9 1.9-5.5 4.4-7.1 7.2-4.8 13.6-10.8 18.5-17.9-9.3 3.7-18.8 7-28.6 8.6-3.5.7-6.3-2-8.5-4.3C282.7 23.7 262.3 17 243 20c-16.1 2.3-30.9 11.5-40.8 24.3z" fill="#fff"/></svg>