<svg width="24" height="24" xmlns="http://www.w3.org/2000/svg">

 <g>
  <title>background</title>
  <rect fill="none" id="canvas_background" height="402" width="582" y="-1" x="-1"/>
 </g>
 <g>
  <title>Layer 1</title>
  <path fill="#ffffff" id="svg_2" d="m22.789,19.001l-3.568,0c-0.599,0 -1.161,-0.233 -1.584,-0.656l-2.076,-2.076c-0.17,-0.17 -0.406,-0.268 -0.646,-0.268c-0.504,0 -0.914,0.41 -0.914,0.914l0,0.857c0,0.678 -0.551,1.229 -1.229,1.229l-3.272,0c-2.29,0 -5.968,-5.144 -8.651,-9.459c-0.556,-0.895 -0.849,-1.929 -0.849,-2.989l0,-0.255c0,-0.715 0.582,-1.297 1.297,-1.297l3.203,0c0.188,0 0.361,0.106 0.446,0.274c0.703,1.388 2.685,5.149 3.407,5.872c0.184,0.183 0.361,0.291 0.473,0.269c0.066,-0.006 0.128,-0.048 0.174,-0.091l0,-3.797c0,-0.529 -0.206,-1.025 -0.58,-1.399l-0.274,-0.274c-0.143,-0.143 -0.186,-0.358 -0.108,-0.545c0.077,-0.187 0.26,-0.309 0.462,-0.309l4.406,0c0.603,0 1.094,0.491 1.094,1.094l0,5.115c0.277,0.128 0.773,0.274 1.165,-0.079c0.419,-0.38 1.464,-2.463 2.66,-5.308c0.21,-0.499 0.697,-0.822 1.241,-0.822l3.508,0c0.786,0 1.426,0.64 1.426,1.427c0,0.805 -0.277,1.595 -0.78,2.224l-3.22,4.025l0,0.618l3.644,3.644c0.347,0.347 0.45,0.864 0.262,1.317c-0.188,0.452 -0.626,0.745 -1.117,0.745zm-7.875,-4c0.511,0 0.992,0.199 1.354,0.561l2.076,2.076c0.231,0.231 0.551,0.363 0.877,0.363l3.568,0c0.122,0 0.173,-0.081 0.193,-0.129c0.02,-0.048 0.041,-0.142 -0.045,-0.228l-3.79,-3.79c-0.094,-0.093 -0.147,-0.22 -0.147,-0.353l0,-1c0,-0.114 0.039,-0.224 0.109,-0.313l3.33,-4.162c0.362,-0.451 0.561,-1.019 0.561,-1.598c0,-0.235 -0.191,-0.427 -0.427,-0.427l-3.508,0c-0.14,0 -0.266,0.082 -0.319,0.209c-0.938,2.229 -2.204,5.021 -2.911,5.661c-0.927,0.839 -2.122,0.391 -2.623,0.038c-0.133,-0.092 -0.212,-0.245 -0.212,-0.408l0,-5.406c0,-0.052 -0.042,-0.094 -0.094,-0.094l-3.325,0c0.273,0.457 0.419,0.981 0.419,1.527l0,3.973c0,0.091 -0.024,0.18 -0.071,0.257c-0.035,0.059 -0.361,0.575 -0.977,0.65c-0.44,0.056 -0.883,-0.131 -1.306,-0.554c-0.869,-0.869 -2.867,-4.709 -3.453,-5.854l-2.896,0c-0.164,0.001 -0.297,0.135 -0.297,0.298l0,0.255c0,0.874 0.242,1.725 0.699,2.461c3.446,5.543 6.435,8.987 7.801,8.987l3.271,0c0.126,0 0.229,-0.103 0.229,-0.229l0,-0.857c0,-1.055 0.859,-1.914 1.914,-1.914z"/>
 </g>
</svg>