<svg width="100" height="100" xmlns="http://www.w3.org/2000/svg">

  <title>background</title>
  <rect fill="none" id="" height="402" width="582" y="-1" x="-1"/>

  <title>Layer 1</title>
  <defs>
   <rect width="100" id="_" height="100"/>
  </defs>
  <path fill="#f5f5f5" id="svg_2" d="m95,59.727l0,33.273l-19.29,0l0,-31.045c0,-7.799 -2.79,-13.121 -9.771,-13.121c-5.331,0 -8.503,3.587 -9.898,7.057c-0.509,1.24 -0.64,2.967 -0.64,4.703l0,32.406l-19.297,0c0,0 0.26,-52.58 0,-58.028l19.294,0l0,8.225c-0.039,0.062 -0.09,0.128 -0.127,0.188l0.127,0l0,-0.188c2.563,-3.948 7.142,-9.588 17.389,-9.588c12.695,0 22.213,8.294 22.213,26.118m-79.081,-52.727c-6.601,0 -10.919,4.33 -10.919,10.024c0,5.57 4.193,10.031 10.663,10.031l0.129,0c6.729,0 10.914,-4.46 10.914,-10.031c-0.127,-5.694 -4.185,-10.024 -10.787,-10.024m-9.773,86l19.289,0l0,-58.028l-19.289,0l0,58.028z"/>

</svg>