<?xml version="1.0" encoding="utf-8"?>
<!-- Generator: Adobe Illustrator 22.0.1, SVG Export Plug-In . SVG Version: 6.00 Build 0)  -->
<svg version="1.1" id="" xmlns="http://www.w3.org/2000/svg" xmlns:xlink="http://www.w3.org/1999/xlink" x="0px" y="0px"
	 viewBox="0 0 178 60" style="enable-background:new 0 0 178 60;" xml:space="preserve">
<style type="text/css">
	.st0{fill:#FFB600;}
	.st1{fill:#FFFFFF;}
</style>

	<path class="st0" d="M108.5,0h4.2c3.1,0.9,4.3,4.7,2.5,7.3c-2.7,3-9.8,2.4-10-2.4C104.9,2.6,106.5,0.8,108.5,0z"/>
	<path class="st0" d="M7.5,6.6c6.7-5.1,16-4.2,23.3-1.1c-1.1,2.6-2.1,5.1-3.1,7.7c-3.9-1.4-8.6-3.7-12.5-1.1
		c-3.7,2.7-4.1,7.8-3.9,12c0,3.6,1.3,8.1,5.1,9.4c4.3,1.5,8.8-0.4,12.8-1.8c0,2.8,0,5.6,0,8.4c-6.4,2.2-13.8,3-20.1-0.1
		c-4.8-2.5-7.5-7.8-8.1-13C-0.1,19.8,1.4,11.3,7.5,6.6z"/>
	<path class="st0" d="M88.4,6.1C90.7,6,92.9,6,95.1,6c0,2,0,4,0,6c2.4,0,4.8,0,7.3,0c0,2.7,0,5.3,0,8c-2.4,0-4.8,0-7.3,0
		c0.2,4.2-0.4,8.5,0.3,12.7c1.6,2.5,5.1,0.7,7.4,0.4c-0.1,2.5-0.1,5-0.2,7.5c-4.4,1.3-9.3,2.3-13.6,0.3c-2.6-1.2-3.7-4.1-4-6.8
		c-0.4-4.7-0.1-9.4-0.2-14.1c-1.2,0-2.3,0-3.5-0.1c0-1.5,0-2.9,0-4.4C85.3,13.7,87.3,10.1,88.4,6.1z"/>
	<path class="st0" d="M42.6,16.3c2.7-3.7,6.9-6.1,11.6-5.4c-0.2,3.2-0.6,6.4-0.8,9.6c-3.3-0.3-8.3-0.5-9.5,3.5
		c-0.7,5.6-0.1,11.3-0.3,17c-3.3,0-6.7,0-10.1,0c0-9.7,0-19.3,0-29c2.5,0,5,0,7.5,0C41.5,13.4,42.1,14.9,42.6,16.3z"/>
	
		<path class="st0" d="M154,14.1c3.5-3,8.2-3.3,12.6-3.1c2.9,0.9,6.2,1.7,8.1,4.3c3.3,3.8,2.8,9,2.8,13.7c-6.1,0-12.2-0.1-18.3,0.1
			c0.7,2.1,1.3,4.6,3.6,5.4c4.3,1.5,9,0,12.9-2c-0.1,2.5-0.1,5-0.1,7.5c-6,2.4-13.1,3.1-19.1,0.3c-4.3-2-6.9-6.6-7.1-11.3
			C148.9,23.8,149.7,17.6,154,14.1z M159.4,22.9c3.1,0.1,6.2,0.1,9.3,0c-0.7-2.2-1.7-5.2-4.6-5C161.1,17.8,160.1,20.7,159.4,22.9z"
			/>
	
	<path class="st0" d="M105.5,12c3.4,0,6.7,0,10.1,0c0,9.7,0,19.3,0,29c-3.3,0-6.7,0-10.1,0C105.5,31.3,105.5,21.7,105.5,12z"/>
	<path class="st0" d="M117,12c3.5,0,7,0,10.6,0c1.8,6.7,4.1,13.2,5.5,20c1.4-6.8,3.9-13.3,5.7-20c3.5,0,7,0,10.5,0
		c-3.7,9.7-7.5,19.3-11.2,29c-3.3,0-6.7,0-10,0C124.4,31.3,120.8,21.6,117,12z"/>

		<path class="st1" d="M60.1,4.4c4.9-2,10.6-1.9,15.4,0.1c4.3,1.9,6,7.6,3.9,11.7c-1.1,2.5-3.4,3.9-5.5,5.3c2.6,1.7,5.5,3.5,6.8,6.5
			c1.3,2.8,0.8,6.2-0.8,8.8C77.3,40.7,72.4,42,68,42c-4.3,0.1-9-0.7-12.1-4c-2.8-3.5-2.9-8.8-0.4-12.5c1.3-1.7,3.2-2.8,5-4
			c-3.6-2.2-6.3-6.3-5.6-10.7C55.1,7.9,57.4,5.5,60.1,4.4z M66.2,10.2c-3.3,1.4-1.6,5.6,0.9,6.8c2.4-0.5,4.5-3.5,3.1-5.9
			C69.3,9.9,67.6,9.7,66.2,10.2z M67.3,25.8c-1.3,1.1-2.8,2.1-3.8,3.6c-0.8,1.5,0.1,3.1,0.4,4.7c2.6,1.1,6.4,1.6,8-1.2
			C72.8,29.6,69.6,27.5,67.3,25.8z"/>
	
	<path class="st1" d="M2.2,51c2.1-2,5.6-0.5,8.2-1c0,0.5,0,1.5,0,2c-0.7,0-2.1,0-2.8,0c0,2.7,0,5.3,0,8H5.5c0-2.5,0-5.1,0.1-7.6
		C4.7,52,3.1,51.3,2.2,51z"/>
	
		<path class="st1" d="M20.6,50.1c0.9,0,1.9-0.1,2.8-0.1c1.2,3.4,2.3,6.7,3.6,10h-2.3c-0.3-0.5-0.8-1.5-1.1-2c-1,0-2,0-3,0
			c-0.4,0.5-1.2,1.5-1.6,2h-1.9C18.4,56.7,19.5,53.4,20.6,50.1z M20.8,56c0.6,0,1.9,0,2.6,0c-0.4-1.4-0.8-2.8-1.3-4.1
			C21.7,53.3,21.2,54.6,20.8,56z"/>
	
	<path class="st1" d="M36.7,50.7c1.9-1.2,4.1-0.5,6.2-0.5c-0.2,0.5-0.5,1.5-0.7,1.9c-1.5,0.1-3.3-0.6-4.6,0.5
		c-1.2,1.6-1.1,4,0.6,5.3c1.1-0.2,2.3-0.4,3.4-0.6c-1.3-0.9-2.6-1.9-3.9-2.8c1.7-0.3,3.4-0.6,5.1-0.9c0,1.9,0,3.9,0,5.8
		c-0.5,0.1-1.5,0.4-2,0.5h-2.8C33.9,59,33.2,52.7,36.7,50.7z"/>
	<path class="st1" d="M51.9,50c0.6,0,1.7,0,2.3,0c0,2.7,0,5.3,0,8c1.3,0,2.6,0,4,0c0,0.5,0.1,1.5,0.1,2h-6.3
		C51.9,56.7,51.9,53.3,51.9,50z"/>
	<path class="st1" d="M66.7,50c0.6,0,1.7,0,2.3,0c0,3.3,0,6.7,0,10h-2.3C66.7,56.7,66.7,53.3,66.7,50z"/>
	<path class="st1" d="M78.5,50c0.7,0,2.1,0,2.8,0c1.4,2.5,2.9,4.9,4.3,7.4c0-2.5,0-4.9,0-7.4l2,0c0,3.3,0,6.7,0,10h-2.8
		c-1.5-2.4-2.9-4.9-4.2-7.5c0,2.5,0,5,0,7.5h-2C78.5,56.7,78.5,53.3,78.5,50z"/>
	<path class="st1" d="M96.5,50c2,0,3.9,0,5.9,0c0,0.5,0,1.5,0,2c-0.9,0-2.8,0-3.7,0c0,0.5,0,1.5,0,2c0.8,0,2.6,0,3.4,0
		c0,0.5,0,1.5,0,2c-0.8,0-2.6,0-3.4,0c0,0.5,0,1.5,0,2c0.9,0,2.7,0,3.6,0c0,0.5,0,1.5,0.1,2h-5.9C96.5,56.7,96.5,53.3,96.5,50z"/>
	<path class="st1" d="M121.7,50c0.6,0,1.7,0,2.3,0c0,1.3,0,2.7,0,4c1.3,0,2.6,0,3.9,0c0-1.3,0-2.7,0-4c0.6,0,1.7,0,2.3,0
		c0,3.3,0,6.7,0,10h-2.3c0-1.3,0-2.7,0-4c-1.3,0-2.6,0-3.9,0c0,1.3,0,2.7,0,4h-2.3C121.7,56.7,121.7,53.3,121.7,50z"/>
	<path class="st1" d="M139.5,50c2,0,3.9,0,5.9,0c0,0.5,0,1.5,0,2c-0.9,0-2.8,0-3.7,0c0,0.5,0,1.5,0,2c0.9,0,2.6,0,3.4,0
		c0,0.5,0,1.5,0,2c-0.9,0-2.6,0-3.4,0c0,0.5,0,1.5,0,2c0.9,0,2.7,0,3.6,0c0,0.5,0,1.5,0.1,2h-5.9C139.5,56.7,139.5,53.3,139.5,50z"
		/>
	
		<path class="st1" d="M153.9,50c1.8,0,3.5,0,5.3-0.1c2.4,1.6,1.8,4.1,0.2,6.1c0.9,1.3,1.8,2.7,2.7,4h-2.3c-1.2-1.5-2.2-3.1-3.4-4.7
			c-0.1,1.6-0.2,3.1-0.3,4.7h-2.2C153.9,56.7,153.9,53.3,153.9,50z M156.1,52.2c-1.2,1.5,1.6,2.9,2.5,1.5
			C159.8,52.2,157,50.9,156.1,52.2z"/>
	
	<path class="st1" d="M170.2,50c1.9,0,3.9,0,5.9,0c0,0.4,0,1.3,0,1.7c-1.6,0.3-3.4,0.3-4.4,1.8c1.4,0.3,2.8,0.5,4.2,0.7
		c0,0.4,0,1.2,0,1.5c-1.4,0.2-2.9,0.5-4.3,0.8c1.1,1.4,2.8,1.5,4.5,1.7c0,0.4,0.1,1.3,0.1,1.7h-5.9C170.2,56.7,170.2,53.3,170.2,50z
		"/>

</svg>
