<?xml version="1.0" encoding="utf-8"?>
<!-- Generator: Adobe Illustrator 22.0.1, SVG Export Plug-In . SVG Version: 6.00 Build 0)  -->
<svg version="1.1" id="" xmlns="http://www.w3.org/2000/svg" xmlns:xlink="http://www.w3.org/1999/xlink" x="0px" y="0px"
	 viewBox="0 0 44 41" style="enable-background:new 0 0 44 41;" xml:space="preserve">
<style type="text/css">
	.st0{fill:#FFFFFF;}
</style>

		<path class="st0" d="M28.9,2.6c0.9-0.5,1.9-1.1,2.8-1.6c1.1,0.8,1.6,2.9,3.3,2.6c0.9-0.8,1.6-1.7,2.5-2.6c0.7,0.4,2.2,1.2,2.9,1.6
			c-0.2,1.6-2.2,4.2-0.1,5.3c0.7,0.1,2.2,0.4,3,0.6c0,0.8,0,2.4,0,3.1c-1.3,0.4-2.9,0.2-3.9,1.2c-0.1,1.3,0.7,2.5,1,3.8
			c-1,0.4-1.9,0.7-2.9,1c-1-1.2-2-2.3-3.4-3c-0.6,0.8-1.7,2.2-2.2,3c-1-0.6-2.1-1.3-3.1-2c0.5-1.1,1-2.3,1.5-3.4
			c-1.4-0.6-2.9-0.9-4.1-1.7c-0.1-0.7-0.2-2.2-0.2-3c1.4-0.3,2.8-0.6,4.2-0.9C29.7,5.3,29.3,3.9,28.9,2.6z M33.2,7.6
			c-3.4,1.5-0.5,6.7,2.7,5C39.3,10.8,36.7,5.3,33.2,7.6z"/>

		<path class="st0" d="M12,6.8c1.7-0.1,3.4-0.1,5.1-0.1c0.6,1.6,0,4.1,2,4.7c1.3-0.6,2.5-1.4,3.7-2.2c1.2,1.2,2.4,2.5,3.7,3.7
			c-0.7,1.1-1.5,2.1-2.2,3.2c0.2,0.5,0.5,1.4,0.7,1.9c1.3,0.2,2.7,0.3,4,0.5c0.1,1.7,0.1,3.5,0.1,5.2c-1.6,0.5-3.8,0.1-4.8,1.8
			c0.6,1.3,1.4,2.5,2.3,3.6c-1.2,1.4-2.4,2.7-3.6,4c-1.6-0.8-3-3.1-5-2c-0.2,1.5-0.4,3-0.6,4.5c-1.7,0-3.5,0-5.2-0.1
			c-0.3-1.8-0.3-4-2.1-5c-1.1,0.9-2.3,1.8-3.4,2.7C5.3,31.9,4,30.7,3,29.3c0.3-1.3,1.3-2.2,2-3.2c-0.2-0.4-0.5-1.3-0.7-1.8
			c-1.3-0.2-2.6-0.4-4-0.6c0-1.7,0-3.5,0-5.2c1.8-0.3,3.7-0.4,4.9-2c-0.9-1.2-1.7-2.4-2.6-3.5c1.3-1.4,2.6-2.6,3.9-3.9
			c0.7,0.6,2.2,1.9,3,2.5C11.7,10.9,11.6,8.7,12,6.8z M12.4,15.9c-4.1,1.5-4.7,7.8-0.8,10c3.4,2.4,8.6-0.2,8.8-4.3
			C20.8,17.5,16,14.1,12.4,15.9z"/>

		<path class="st0" d="M28.9,25.8c0.9-0.5,1.9-1,2.8-1.6c1,1,2.1,2,3.3,2.9c0.8-1,1.5-2,2.3-3.1c1,0.6,2,1.2,3,1.8
			c-0.2,1.3-1.3,2.6-0.8,3.8c1.2,0.5,2.5,0.8,3.8,1c0,1.2,0,2.3,0,3.5c-1.4,0.3-2.7,0.5-4.1,0.8c0.3,1.3,0.7,2.7,1.1,4
			c-1,0.6-2,1.2-3,1.7c-0.8-1-1.5-2-2.3-3.1c-1.2,0.9-2.3,1.9-3.3,2.9c-0.9-0.5-1.9-1-2.8-1.6c0.4-1.3,0.8-2.6,1.2-3.9
			c-1.4-0.4-2.7-0.7-4.1-1c0-1.2,0-2.3,0-3.5c1.4-0.3,2.7-0.7,4.1-1C29.7,28.4,29.3,27.1,28.9,25.8z M31.3,32.5
			c0.9,1.2,1.7,3.3,3.6,3c2.5-0.3,3.7-3.8,1.5-5.3C34.4,28.3,31.9,30.5,31.3,32.5z"/>

</svg>
