<?xml version="1.0" encoding="utf-8"?>
<!-- Generator: Adobe Illustrator 22.0.1, SVG Export Plug-In . SVG Version: 6.00 Build 0)  -->
<svg version="1.1" id="" xmlns="http://www.w3.org/2000/svg" xmlns:xlink="http://www.w3.org/1999/xlink" x="0px" y="0px"
	 viewBox="0 0 40 35" style="enable-background:new 0 0 40 35;" xml:space="preserve">
<style type="text/css">
	.st0{fill:#FFFFFF;}
</style>

	<path class="st0" d="M34.3,1c1.9,0,3.8,0,5.7,0v34.5h-5.5C33.9,24,34.4,12.5,34.3,1z"/>
	<path class="st0" d="M26,12.5c1.9,0,3.8,0,5.7,0c-0.1,7.7,0.3,15.3-0.2,23h-0.6l-0.7-0.2c-1.4-0.1-2.7-0.1-4.1-0.2
		C26,27.6,26,20.1,26,12.5z"/>
	<path class="st0" d="M17,21c1.9,0,3.8,0,5.7,0c0,4.8,0,9.6,0,14.5h-0.5c-1.7-0.7-3.5-0.4-5.3-0.3C17,30.5,17,25.7,17,21z"/>
	<path class="st0" d="M8.3,26.8c1.9,0,3.8,0,5.7,0c0.1,2.8,0,5.6,0.1,8.4c-1.7,0.1-3.6-0.3-5.2,0.3H8.3C8.3,32.6,8.3,29.7,8.3,26.8z
		"/>
	<path class="st0" d="M0,29.5c1.9,0,3.9,0,5.8,0.2c-0.1,1.9-0.1,3.8-0.2,5.6c-1.9,0-3.7-0.1-5.6-0.3V29.5z"/>

</svg>
