<?xml version="1.0" encoding="utf-8"?>
<!-- Generator: Adobe Illustrator 22.0.1, SVG Export Plug-In . SVG Version: 6.00 Build 0)  -->
<svg version="1.1" id="" xmlns="http://www.w3.org/2000/svg" xmlns:xlink="http://www.w3.org/1999/xlink" x="0px" y="0px"
	 viewBox="0 0 40 39" style="enable-background:new 0 0 40 39;" xml:space="preserve">
<style type="text/css">
	.st0{fill:#FFFFFF;}
</style>

	<path class="st0" d="M6.2,9.9C8.3,7,9.7,3.6,12.1,1c3.2-1.2,5.6,1.5,7.5,3.5c-2.1,3.3-4,6.6-6,9.9C11.2,12.9,8.7,11.4,6.2,9.9z"/>
	<path class="st0" d="M17,0.9c3.3,0.3,6.6,0,9.9,0.2c2.3,0.7,2.8,3.5,4,5.3c1.1-0.6,2.2-1.2,3.2-1.8c-1.7,2.8-3.3,5.6-4.9,8.4
		c-3.1-0.2-6.3-0.3-9.4-0.6c1.2-0.6,2.4-1.2,3.6-1.9C21.8,7,20.1,3.4,17,0.9z"/>
	<path class="st0" d="M27.1,16.4c1.7-2.2,4.8-3.2,7.1-4.9c1.9,3.1,3.3,6.5,5.8,9.2v0.5c-1.7,2.6-4.2,4.3-7.3,4.9
		C31,22.8,28.8,19.8,27.1,16.4z"/>
	<path class="st0" d="M0,13.7c3.2,0,6.5-0.6,9.6,0.3c1.1,2.6,3.6,5.1,3.1,8.1c-0.6-0.4-1.7-1.3-2.3-1.7c-2.6,2.8-4.4,6.3-5.6,10
		c-1.4-3-3.2-5.9-4.5-9c0-2.3,1.9-4.2,2.9-6.2c-1-0.4-2.1-0.8-3.2-1.1V13.7z"/>
	<path class="st0" d="M20.9,31.2c1.4-3,3.1-5.7,4.8-8.5c0,1.3,0,2.7,0,4c3.8,0.1,7.6,0.2,11.3-1.1c-1.8,2.9-2.9,6.2-4.9,9
		c-2,0.9-4.3,0.7-6.4,0.9c0.1,0.9,0.2,2.7,0.3,3.6C24.3,36.5,22.8,33.7,20.9,31.2z"/>
	<path class="st0" d="M6.8,26.5c3.8,0.3,7.7,0.5,11.5,0.6C18.2,30,18,32.9,18,35.8c-3.5-0.3-7-0.1-10.4-0.9C4.6,33,6,29.2,6.8,26.5z
		"/>

</svg>
