<?xml version="1.0" encoding="utf-8"?>
<!-- Generator: Adobe Illustrator 22.0.1, SVG Export Plug-In . SVG Version: 6.00 Build 0)  -->
<svg version="1.1" id="" xmlns="http://www.w3.org/2000/svg" xmlns:xlink="http://www.w3.org/1999/xlink" x="0px" y="0px"
	 viewBox="0 0 37 37" style="enable-background:new 0 0 37 37;" xml:space="preserve">
<style type="text/css">
	.st0{fill:#FFFFFF;}
</style>

		<path class="st0" d="M9.7,0.5h1.5c4.1,1,7,4.6,9.6,7.8c2,2.5,0.6,5.7-0.7,8.1c0.4,0.4,1.2,1.2,1.6,1.6c2.5-1.4,5.6-2.7,8.1-0.7
			c3.2,2.5,6.7,5.4,7.8,9.5v0.4c-0.8,4.3-4.2,7.8-7.9,9.7c-5.1,0.9-8.4-3.7-11.5-6.8c-2.5-2.6-1.4-6.3,0.3-9
			c-0.4-0.4-1.2-1.1-1.5-1.5c-2.8,1.7-6.7,2.6-9.4,0.1c-2.7-2.5-6.1-4.9-6.9-8.7V9.3C1.9,5.2,5.4,1.5,9.7,0.5z M4.9,10.4
			c2.5,2.3,4.6,7.1,8.5,6.4c-0.8-1.3-2.5-3.7-0.5-4.7c1.3-1.2,2.9,0.7,4.2,1c1.2-3.8-3.4-5.8-5.6-8.2C8.3,4.8,6.7,8.3,4.9,10.4z
			 M24.5,20.7c0.6,0.8,1.7,2.3,2.3,3.1c-1.1,2.6-3.8,2-5.5,0.3c-0.9,3.8,3.5,5.8,5.7,8.2c3,0.7,4.5-3.2,6.6-4.7
			C31.1,24.8,28.8,20,24.5,20.7z"/>

</svg>
