<?xml version="1.0" encoding="utf-8"?>
<!-- Generator: Adobe Illustrator 22.1.0, SVG Export Plug-In . SVG Version: 6.00 Build 0)  -->
<svg version="1.1" id="" xmlns="http://www.w3.org/2000/svg" xmlns:xlink="http://www.w3.org/1999/xlink" x="0px" y="0px"
	 viewBox="0 0 91 62" style="enable-background:new 0 0 91 62;" xml:space="preserve">
<style type="text/css">
	.st0{fill:#FFFFFF;}
</style>
<g>
	<g>
		<path class="st0" d="M54.4,0h2.4c1.9,0.7,3.1,2.3,4.2,3.9c6.6-0.6,13.3-1.3,20-1.7c0.1,2.4,0.2,4.8,0.1,7.2
			C74,10,66.8,9.3,59.7,10.1c5,1.1,10.5-0.2,15.1,2.7c6.8,3.7,8.1,12,11.5,18.3c2.9,5.3,4.2,11.6,2.7,17.5
			c-2.1,4.4-7.6,2.9-11.5,3.2c0,2.2,0,4.4,0,6.6c2.6-0.1,5.3,0.2,7.9-0.4c2-1.2,3.3-4.5,6.1-3v2c-1.3,2.6-3.8,4.4-6.7,5H24.9
			c0-1.2-1-3.3,0.9-3.5c4.9-0.4,9.9,0,14.8-0.2c0-2.2,0-4.4,0-6.6c-3,0-6.1,0.1-8.9-1.1c-10.4-3.8-21-6.9-31.2-10.9V20.3
			c2.8-0.4,6.1-1.4,8.6,0c2.1,3.3,3.6,6.9,5.5,10.3c4.1,0,8.2,0,12.4,0c3.9-5.2,7.3-10.8,11.4-15.7c3.3-3.8,8.5-4.2,13.2-4.7
			c-7-1-14-0.1-21.1-0.8c0-2.4,0-4.7,0-7.1c6.7,0.2,13.3,1.1,20,1.5C51.5,2.3,52.7,0.8,54.4,0z M53.4,3.8c-0.1,2.3-0.1,4.5-0.2,6.8
			c1.7,0,3.4,0,5.1,0c0-2.3,0-4.5-0.1-6.8C57.5,1.7,53.9,1.6,53.4,3.8z M32.8,4.5c0,0.7,0,2.2,0,2.9c5.9,0,11.8,0.2,17.8,0.1l0-1.4
			C44.7,5.6,38.7,5.1,32.8,4.5z M60.3,7.3c6.1,0.5,12.3,0,18.4,0.1c0-0.7,0-2.2,0-2.9C74.1,5,69.3,5.4,64.7,5.8
			C63.2,6.1,61,5.5,60.3,7.3z M47.1,14.4c-6.1,0.7-8.5,7-11.8,11.2c-2.3,2.8-3.8,6.4-6.7,8.5c-8.1,0.2-16.2,0.1-24.2,0.2
			c0,1,0,2,0,3.1c10.4,3.5,20.8,7.3,31.3,10.6c6.8,0.3,13.7,0,20.5,0.1c0.2-9.8-0.2-19.7,0.2-29.5l1.3,0.8
			c0.5,9.5,0.1,19.1,0.2,28.7c8.6,0,17.2,0.1,25.8,0c1.7,0.3,2.3-1.7,2.1-3c0-2.8,0.2-5.7-1-8.3c-2.4-5.3-4.7-10.7-7.2-16
			c-2-4.1-6.5-6.5-10.9-6.5C60,14.3,53.5,14,47.1,14.4z M4.3,23.1c0,2.4,0,4.8,0,7.2c1.9,0,3.9,0,5.8,0C8.3,27.9,8.1,23.2,4.3,23.1z
			 M43.8,58.4c10.2,0,20.4,0,30.6,0c0-2.2,0-4.4,0-6.6c-10.2,0-20.4,0-30.5,0C43.8,54,43.8,56.2,43.8,58.4z"/>
	</g>
	<g>
		<path class="st0" d="M61.9,18.9c4.5-0.5,10-0.2,12.8,3.9c1.8,3.3,3.3,6.8,4.4,10.4c-5.5,0.1-11.1,0.2-16.6,0L62,32.8
			C61.8,28.2,61.9,23.5,61.9,18.9z M64,20.6c0,3.6,0,7.1,0,10.7c4.1,0,8.2,0,12.3,0c-1.1-2.4-2-5-3.4-7.4C70.9,21,67.2,20.8,64,20.6
			z"/>
	</g>
	<path class="st0" d="M62.4,36.3c2.6,0.2,6.7-1.7,8.1,1.3C67.9,37.4,63.7,39.3,62.4,36.3z"/>
</g>
</svg>
