<?xml version="1.0" encoding="utf-8"?>
<!-- Generator: Adobe Illustrator 22.1.0, SVG Export Plug-In . SVG Version: 6.00 Build 0)  -->
<svg version="1.1" id="" xmlns="http://www.w3.org/2000/svg" xmlns:xlink="http://www.w3.org/1999/xlink" x="0px" y="0px"
	 viewBox="0 0 80 71" style="enable-background:new 0 0 80 71;" xml:space="preserve">
<style type="text/css">
	.st0{fill:#FFFFFF;}
</style>
<g>
	<g>
		<path class="st0" d="M20.1,0.5h3.4c6.1,0.4,11.7,3.7,15.8,8.2C43.6,4.2,49.4,1,55.7,0.5h2.5c11.3,0.6,21,10.4,21.8,21.6v3
			c-0.4,6.4-4,11.9-7.3,17.2c-8.2,12.6-19.8,23.6-33.9,29.2C25.4,64.3,14,53.2,6.3,40C3.5,34.7,0.5,29.2,0,23.1v-2.9
			C0.7,9.8,9.9,1.4,20.1,0.5z M4,18.5c-1.3,6,1.5,11.8,4.1,17c4,0,7.9,0,11.9,0c3.2-6.5,6.4-13.1,9.6-19.6
			C33.8,26,37.9,36.2,42,46.3c3.1-7.4,6.2-14.7,9.3-22.1c2.1,3.8,4.2,7.6,6.4,11.3c5-0.1,10,0.1,15-0.1c2.1-3.9,4.1-8.2,3.7-12.8
			c-0.5-10.2-10-19-20.3-18.4c-7,0.3-12.8,5-16.9,10.3C35.7,9.7,31,5.4,25,4.4C15.8,2.6,5.7,9.2,4,18.5z M21.9,38.4
			c-4,0-8.1,0-12.1,0c7.1,12,17.4,22,29.4,29.1c13.2-6.2,24.2-16.7,31.7-29.1c-5,0-9.9,0-14.9,0c-1.4-2.5-2.8-5-4.2-7.5
			c-3.3,7.7-6.5,15.4-9.7,23.1c-4.2-10.3-8.3-20.5-12.6-30.8C26.9,28.3,24.4,33.4,21.9,38.4z"/>
	</g>
</g>
</svg>
