<?xml version="1.0" encoding="utf-8"?>
<!-- Generator: Adobe Illustrator 22.1.0, SVG Export Plug-In . SVG Version: 6.00 Build 0)  -->
<svg version="1.1" id="" xmlns="http://www.w3.org/2000/svg" xmlns:xlink="http://www.w3.org/1999/xlink" x="0px" y="0px"
	 viewBox="0 0 91 73" style="enable-background:new 0 0 91 73;" xml:space="preserve">
<style type="text/css">
	.st0{fill:#FFFFFF;}
</style>
<g>
	<g>
		<path class="st0" d="M41.1,0.5H50c1.1,7,0,14.1,0.6,21.1c0.3,1.8,2.2,2.6,3.4,3.8c0.3-3.8-0.6-8.3,2.2-11.3
			c2.2-2.2,5.6-1.6,8.1-0.4c5.4,2.6,9.5,7.1,13.6,11.4c7.5,8.1,13.2,18.4,13.7,29.7V64c0.1,3.9-1.2,8.5-5.5,9.5h-2.6
			c-5.3-0.9-9.6-4.4-14.3-6.7c-3.4-1.6-7.4-1.5-10.8-3.2c-3.1-1.9-4.2-5.7-4.2-9.2c0-6,0.1-12,0-18.1c-3.4-0.9-6.3-2.9-8.7-5.4
			c-2.2,2-4.7,3.7-7.4,5c0,6.2,0,12.3,0,18.5c0,3.4-1.1,7.3-4.3,9.1c-3.6,1.8-7.8,1.6-11.4,3.5c-4.4,2.3-8.6,5.4-13.5,6.4H6.2
			c-4.5-0.7-5.8-5.6-5.7-9.5v-9.2c0.4-11.3,6.1-21.6,13.7-29.7c4.1-4.3,8.2-8.8,13.6-11.4c2.5-1.2,5.9-1.7,8.1,0.5
			c2.7,2.9,1.9,7.3,2.3,10.9c0.8-1.2,2.3-2,2.5-3.6C41.1,14.5,40,7.4,41.1,0.5z M43.8,3.4c0,1.4,0,2.8,0,4.2c0.9,0,2.7,0,3.6,0
			c0-1.4,0-2.8,0-4.2C46.5,3.4,44.7,3.4,43.8,3.4z M43.8,9.8c0,1,0,2.1,0,3.1c0.9,0,2.7,0,3.5,0c0-0.8,0-2.3,0-3.1
			C46.2,9.8,45,9.8,43.8,9.8z M43.8,15.1c0,1.1,0,2.1,0,3.2c1.2,0,2.4,0,3.6,0c0-1.1,0-2.1,0-3.2C46.2,15.1,45,15.1,43.8,15.1z
			 M28.9,17c-3.6,1.9-6.5,4.8-9.3,7.6c-5.9,6-11.1,12.9-13.7,20.9C3.8,52,4.1,58.8,4.3,65.5c0.1,1.9,0.7,5,3.2,4.6
			c5-0.6,8.9-4.1,13.3-6.1c3.4-1.8,7.4-1.7,10.8-3.2c2.3-1.5,2.5-4.7,2.6-7.2c-0.1-10.7,0-21.3,0-32c-0.2-1.8,0.1-4.3-1.8-5.4
			C31.2,16.1,30,16.4,28.9,17z M58.8,16.7c-1.4,2.3-0.8,5.2-1,7.8c0.2,10.8-0.3,21.6,0.3,32.3c0.3,4.4,5.1,4.9,8.5,5.5
			c6.6,1.2,11.4,6.9,18,7.7c2.5,0.3,3.1-2.7,3.2-4.6c0.2-5.4,0.4-10.8-0.6-16.1c-2.3-11.5-10.2-20.9-18.7-28.6
			C65.7,18.8,62.2,15,58.8,16.7z M44,20.5c0,3.7-3,6.2-6,7.8c0,1.5,0,3.1,0,4.6c3-1.4,4.8-4.5,7.7-6c2.7,2.4,4.8,5.5,8.4,6.7
			c0-1.6,0-3.3,0.1-4.9c-3.3-1.6-6.8-4-6.9-8.1C46.1,20.4,45.1,20.5,44,20.5z"/>
	</g>
</g>
</svg>
