<?xml version="1.0" encoding="utf-8"?>
<!-- Generator: Adobe Illustrator 22.1.0, SVG Export Plug-In . SVG Version: 6.00 Build 0)  -->
<svg version="1.1" id="" xmlns="http://www.w3.org/2000/svg" xmlns:xlink="http://www.w3.org/1999/xlink" x="0px" y="0px"
	 viewBox="0 0 91 80" style="enable-background:new 0 0 91 80;" xml:space="preserve">
<style type="text/css">
	.st0{fill:#FFFFFF;}
</style>
<g>
	<g>
		<path class="st0" d="M38.4,0H52c2.5,3.7,0.6,8.6,1.2,12.8c4,0.2,8.2-0.5,12.1,0.4c0.2,0.3,0.5,0.9,0.7,1.2
			c0.2,4.3,0.3,8.6-0.1,12.9l-0.5,0.7c-4,1-8.2,0.2-12.2,0.4c-0.5,4.1,1,8.8-0.8,12.5c-4.5,0.8-9.3,0.4-13.9,0.2
			c-0.2-0.3-0.6-0.8-0.8-1.1c-0.3-3.8,0-7.7-0.1-11.6c-4-0.1-8,0.2-11.9-0.2c-0.2-0.3-0.7-0.9-0.9-1.2c-0.2-4.3-0.3-8.7,0-13
			c0.2-0.3,0.7-0.8,0.9-1c4-0.4,7.9-0.1,11.9-0.2C37.9,8.6,36.5,4,38.4,0z M41.6,4c-0.1,4,0.3,8-0.3,12c-0.3,0.2-0.8,0.6-1.1,0.8
			c-3.9,0.3-7.8,0-11.7,0.1c0,2.5,0,5,0,7.4c4,0.2,8.2-0.5,12.1,0.4c2,3.6,0.4,8.4,0.9,12.5c2.5,0,5,0,7.5,0c0.3-4-0.5-8.3,0.5-12.2
			c3.9-1.6,8.4-0.3,12.5-0.7c0-2.5,0-5,0-7.5c-4-0.1-8.2,0.5-12.1-0.3C48,12.9,49.5,8.1,49.1,4C46.6,4,44.1,4,41.6,4z"/>
	</g>
	<path class="st0" d="M0.5,27.3c1-6.5,9.1-7.6,14.2-5.4c4.3,2.5,2.7,8,3,12.1c1.4,0.9,3.1,1.5,3.7,3.1c1.1,2.5,0,5.5,0.9,8.1
		c4.9,3.8,10.3,7,15.2,10.7c2.5,1.9,4.1,5,4.2,8.1c0.2,5,0,10,0.1,15c-1.4,0-2.8,0-4.1,0c-0.1-5,0.1-10.1-0.1-15.1
		c0-2.6-2-4.6-4.1-5.9c-5.2-3.6-10.4-7.2-15.6-10.7c0-3,0-6-0.3-9c-1.8,0-3.6,0-5.4,0c-0.1,4.1,0,8.1-0.1,12.2c-1,0-3,0-4.1,0
		c0.1-4.4-0.3-8.9,0.2-13.3c0.7-2.4,3.2-2.8,5.3-3.2c-0.4-2.8,1.1-6.6-1.2-8.7c-2.5-0.2-6.3-1-7.5,1.9c-0.5,7.3,0,14.6-0.2,21.9
		c0.1,2.4-0.4,5.4,2,6.8c5.9,4.2,12,8.1,18,12.2c0,4,0,7.9,0,11.9h-4.1c0-3.3,0-6.5,0-9.8C15,66.6,9.6,63,4.3,59.3
		c-2-1.3-3.2-3.5-3.8-5.8V27.3z"/>
	<path class="st0" d="M75.3,23.8c2.2-3.5,6.7-3,10.2-2.6c3.1,0.4,5.3,3.1,5.9,6.1v26.1c-0.5,2.3-1.7,4.6-3.8,5.9
		c-5.3,3.7-10.8,7.3-16.1,11c0,3.3,0,6.5,0,9.8h-4.1c0-4,0-7.9,0-11.9c5.2-3.5,10.3-7.1,15.6-10.5c2-1.3,4.6-2.8,4.3-5.5
		c0-8,0.1-16-0.1-24c-0.4-3.8-5.7-3.5-8.2-2.4c-1.4,2.3-0.4,5.6-0.7,8.2c2.1,0.4,4.7,0.8,5.3,3.2c0.5,4.4,0.1,8.9,0.2,13.3
		c-1,0-3.1,0-4.1,0c0-4.1,0-8.1,0-12.2c-1.8,0-3.7,0-5.5,0.1c-0.2,3-0.2,6-0.2,9c-5.3,3.5-10.4,7.1-15.6,10.7
		c-2.1,1.4-4.1,3.4-4.1,6.1c-0.2,5,0,10-0.1,15c-1.4,0-2.7,0-4.1,0c0-5-0.1-10,0-15c0-3.7,2.2-7,5.2-9c4.8-3.3,9.6-6.7,14.5-9.9
		c0.1-2.4-0.1-4.8,0.3-7.2c0.4-2.1,2.4-3.1,4-4C74.6,30.6,73.7,26.9,75.3,23.8z"/>
</g>
</svg>
