<?xml version="1.0" encoding="utf-8"?>
<!-- Generator: Adobe Illustrator 22.0.1, SVG Export Plug-In . SVG Version: 6.00 Build 0)  -->
<svg version="1.1" id="Layer_1" xmlns="http://www.w3.org/2000/svg" xmlns:xlink="http://www.w3.org/1999/xlink" x="0px" y="0px"
	 viewBox="0 0 38 40" style="enable-background:new 0 0 38 40;" xml:space="preserve">
<style type="text/css">
	.st0{fill:#6A6A6A;}
</style>
<g>
	<g>
		<path class="st0" d="M16.2,0h5.2c3.3,1.1,6.5,3.3,7.8,6.6c1.9,4.2,0.5,9-1.7,12.8c-2.5,4.2-4.9,8.6-8.5,11.9
			c-3.1-2.8-5.3-6.4-7.5-9.9C9.3,17.7,7,13.5,7.9,9C8.6,4.6,12.2,1.5,16.2,0z M12.9,3.8c-2.9,2.4-4.3,6.7-3,10.3
			c2,5.5,5.6,10.3,9.1,14.9c3.4-4.4,6.7-9,8.8-14.2c1.6-3.7,0.5-8.4-2.6-11C21.8,1,16.3,0.9,12.9,3.8z"/>
	</g>
	<g>
		<path class="st0" d="M16.3,6.3c3.4-2,8.3,0.6,8,4.7c0.4,3.7-3.8,6.7-7.2,5.3C12.8,15,12.4,8.3,16.3,6.3z M18.4,7.4
			c-2.8,0.4-4.3,4.3-2.1,6.3c1.5,1.9,4.7,1.5,5.8-0.6C23.9,10.6,21.4,6.8,18.4,7.4z"/>
	</g>
	<path class="st0" d="M4,23.1c0.4-2.6,3.7-2.4,5.5-3.3c-1.6,1.9-4,3.5-4.5,6.1C4,29.8,3.1,33.8,2,37.7c2.5-1.3,4.9-3,7.8-3.5
		c3.2,0.9,5.9,3,9.2,3.8c3.3-0.7,6-2.8,9.3-3.8c2.8,0.5,5.2,2.2,7.8,3.5c-1.1-3.9-2-7.9-3.1-11.9c-0.5-2.6-2.9-4.1-4.5-6
		c1.9,0.9,5.1,0.7,5.5,3.3c1.5,5.1,2.7,10.3,4.1,15.4V40h-1.2c-2.9-1.2-5.5-3.4-8.6-3.8c-3,0.9-5.8,2.6-8.7,3.8h-1
		c-2.9-1.3-5.6-3-8.6-3.8c-3.1,0.4-5.8,2.6-8.7,3.8H0v-1.6C1.4,33.3,2.5,28.2,4,23.1z"/>
</g>
</svg>
