<?xml version="1.0" encoding="utf-8"?>
<!-- Generator: Adobe Illustrator 22.1.0, SVG Export Plug-In . SVG Version: 6.00 Build 0)  -->
<svg version="1.1" id="" xmlns="http://www.w3.org/2000/svg" xmlns:xlink="http://www.w3.org/1999/xlink" x="0px" y="0px"
	 viewBox="0 0 51 46" style="enable-background:new 0 0 51 46;" xml:space="preserve">
<g>
	<g>
		<path d="M34.7,0h4.5C45,0.9,50.3,5.1,51.5,11v4c-0.7,2.1-1.5,4.3-3.1,5.9c-2.3,2.5-5.8,3.4-8.2,5.7c-1.8,1.7-3.6,3.4-5.7,4.8
			c0.2-1.8,0.4-3.7,0.5-5.5C29,24.9,22.6,20.7,22.2,14C21.4,6.7,27.9,0.9,34.7,0z M24.4,15c1.2,5.9,7.3,8.6,12.7,9.3
			c0,0.6,0,1.9,0.1,2.5c3-4.5,10-4.8,11.7-10.4c3-7.3-4.2-14.8-11.4-14.6C30.4,1.1,22.6,7.5,24.4,15z"/>
	</g>
	<g>
		<path d="M0.5,14c1-4.7,4.7-10.3,10-10c2.4,1.9,4.2,4.5,6,7c1,1.5,2.4,3,2,4.9c-0.9,1.5-2.1,2.7-3.2,4c2.8,3.7,5.6,7.3,8.4,10.9
			c2.1-0.8,4.8-3,6.9-1c3,3,5.7,6.4,7.5,10.2c-1,3.9-5.5,5-8.8,6h-4.2c-7.3-1.2-10.7-8.3-15-13.5c-3.4-4.8-8-8.9-9.6-14.7V14z
			 M8,5.8c1.7,4.1,4.9,7.2,7.6,10.7l0.5-1.5C13.9,11.6,11.9,7.5,8,5.8z M6.6,7.6c-2,2.4-4,5.2-3.8,8.4c0.1,4.4,3.5,7.5,5.9,10.9
			c3.7,4.6,7,9.5,11,13.9c3.6,3.7,9.4,3.7,13.7,1.5c-2.4-3.2-4.9-6.3-7.3-9.5c-0.7,0.2-2.1,0.7-2.8,0.9c-4.2-4.5-7.8-9.5-11.3-14.5
			c0.6-0.5,1.7-1.4,2.2-1.8C11.7,14,9.2,10.8,6.6,7.6z M27.5,30.7c1.8,4.1,4.5,8.2,8.3,10.7C34.3,37.1,31.2,33.3,27.5,30.7z"/>
	</g>
	<g>
		<path d="M33.8,5.4c2.1,0,4.2,0,6.3,0.1c0,1.5,0.1,3.1,0.1,4.6c1.7,0.1,3.3,0.2,5,0.3c-0.1,1.9,0.3,4-0.4,5.9
			c-1.5,0.2-3,0.2-4.5,0.3c-0.4,1.4,0.4,3.4-0.7,4.6c-1.9,0.2-3.9,0.1-5.9,0.1c0-1.6-0.1-3.1-0.1-4.7c-1.7-0.1-3.3-0.1-5-0.2
			c0-2,0.1-4,0.1-6c1.6,0,3.2-0.1,4.9-0.1C33.6,8.6,33.7,7,33.8,5.4z M35.6,7.2c0,1.6-0.1,3.2-0.1,4.8c-1.7,0-3.3,0-5,0.1
			c0,0.6,0,1.8,0,2.4c1.7,0.1,3.4,0.2,5,0.2c0,1.5,0,3.1,0,4.6c0.6,0,1.9,0,2.5,0c0-1.5,0-3.1,0-4.6c1.7-0.1,3.3-0.2,5-0.3
			c0-0.6,0-1.8,0-2.3c-1.6,0-3.3-0.1-4.9-0.1c0-1.6-0.1-3.2-0.2-4.8C37.5,7.3,36.3,7.3,35.6,7.2z"/>
	</g>
</g>
</svg>
