<?xml version="1.0" encoding="utf-8"?>
<!-- Generator: Adobe Illustrator 22.1.0, SVG Export Plug-In . SVG Version: 6.00 Build 0)  -->
<svg version="1.1" id="" xmlns="http://www.w3.org/2000/svg" xmlns:xlink="http://www.w3.org/1999/xlink" x="0px" y="0px"
	 viewBox="0 0 45 50" style="enable-background:new 0 0 45 50;" xml:space="preserve">
<g>
	<g>
		<path d="M8.1,0h2.6c3.2,2.3,2.1,6.6,2,10c0,2.4-2.9,4-4.9,2.7C6.2,11.8,6.3,9.6,5.8,8c-1,0.1-2,0.2-3,0.3
			c-0.1,5.9-0.3,11.7,0,17.6c0.1,2.9,2.7,5.4,5.6,5.4c3.3,0.1,6.7-0.2,10.1,0c2.6,0,5.7,0.6,7.7-1.6c2.1-2,1.8-5,1.9-7.7
			c-0.1-4.6,0.2-9.2-0.3-13.8c-0.7,0-2.1-0.1-2.7-0.1c-0.6,1.7-0.5,4.2-2.6,4.9c-2,0.8-4.4-0.9-4.4-3C17.9,6.6,17,2.4,19.9,0h2.6
			c1.9,1.2,2.2,3.4,2.4,5.4c2,0.2,4.8,0.3,5.2,2.8c0.4,5.6,0.1,11.2,0.2,16.8c0.1,3.5-2,7.2-5.4,8.3c-3,0.7-6.1,0.5-9.1,0.7
			c0.1,3.8-0.4,7.7,0.3,11.5c1.5,3.1,5.7,1.9,8.5,2c4.2,0.3,2.5-5,3.1-7.5c0.2-3.2,4-2.8,6.3-3c0.9-2.1,2-4.7,4.5-5.2
			c3.1-1,5.8,1.5,7,4.1v3.2c-0.9,2.5-3,4.9-5.9,4.7c-2.6,0-4-2.4-5.5-4.2c-1.3,0.3-3.1-0.4-4.1,0.7c-0.4,3.5,0.5,7.8-3.2,9.8h-9.3
			c-1.6-1-3.5-2.1-3.8-4.1c-0.5-4-0.1-8-0.2-12c-3.2-0.1-6.8,0.5-9.5-1.5C2,31,1.1,28.8,0.5,26.6V8.1c1-2.2,3.3-2.5,5.4-2.6
			C6.1,3.4,6.5,1.4,8.1,0z M8.4,2.6c0,2.6-0.2,5.1,0.1,7.7c0.5,0,1.5,0,2,0c0.2-2.5,0.2-5,0-7.4C10,2.8,8.9,2.6,8.4,2.6z M20.4,2.8
			c-0.2,1.4-0.3,2.8-0.2,4.2c-0.3,1.2,0.3,5.3,2.1,2.9c-0.1-2.4,1.1-5.8-0.8-7.6L20.4,2.8z M37.8,34.3c-2.6,1.8-2,6.5,1.1,7.4
			c2.7,0.8,5.3-2.1,4.7-4.7C43.3,34.3,40,32.5,37.8,34.3z"/>
	</g>
	<g>
		<path d="M38.8,35.3c3.2-1.7,5.1,4.1,1.7,4.9C37.6,41,36.3,36.6,38.8,35.3z M39.2,36.9c-0.5,1.4-0.1,1.9,1.3,1.5
			C41.1,37.1,40.6,36.5,39.2,36.9z"/>
	</g>
</g>
</svg>
