<?xml version="1.0" encoding="utf-8"?>
<!-- Generator: Adobe Illustrator 22.1.0, SVG Export Plug-In . SVG Version: 6.00 Build 0)  -->
<svg version="1.1" id="" xmlns="http://www.w3.org/2000/svg" xmlns:xlink="http://www.w3.org/1999/xlink" x="0px" y="0px"
	 viewBox="0 0 31 54" style="enable-background:new 0 0 31 54;" xml:space="preserve">

		<path d="M13.9,0h4c3.6,0.7,6.8,2.6,9.7,4.7c-1.1,1.5-2.3,3.1-3.5,4.6c2.9,2.1,6.1,4.7,6.3,8.6c0.6,7-0.1,14,0.4,21
			c-0.4,0-1.3-0.1-1.7-0.1c0.9,2.2,1.8,4.3,2.4,6.6v4.7c-1.1,0.9-2.1,2.7-0.8,3.9H1.3c1.3-1.2,0.4-3-0.8-3.9v-4.6
			c0.6-2.2,1.4-4.4,2.2-6.6c0.7,0,2,0.1,2.7,0.1l-2.6-0.4c3.4-3.1,7.4-5.5,12.1-5.6c-2.6-0.9-5.5-1.8-7.2-4.1c-2-2.2-2.3-5.2-2.9-8
			c4-0.5,7.8-2.2,10.7-5.1c3.2,3.1,7.2,5.4,11.7,5.8c-0.5,2.6-0.8,5.4-2.6,7.5c-1.8,2.3-4.6,3.1-7.3,3.9c4.2,0.3,8.6,1.8,10.8,5.6
			c1-5.8,0.4-11.7,0.5-17.5c0.1-3-0.5-6.2-3.1-8.1c-4.8-2.9-11-3.9-16.2-1.5c-3.5,1.2-5.7,4.8-5.6,8.4c-0.2,5.6-0.2,11.2,0.3,16.8
			c-0.6,0.7-1.2,1.4-1.9,2C1.4,32.2,1.6,25.6,1.8,19c0.1-4.1,3.1-7.2,6-9.7C6.6,7.8,5.5,6.2,4.3,4.6C7.2,2.5,10.4,0.7,13.9,0z
			 M7.1,5C8,6.2,8.9,7.4,9.8,8.6c4-1.5,8.4-1.4,12.3,0.1c0.9-1.2,1.8-2.4,2.6-3.6c-2.9-1.5-5.9-3.2-9.3-3C12.4,2.1,9.8,3.7,7.1,5z
			 M6.3,22.6c1.2,3.5,3.3,7.3,7.2,8.3c5.3,1.7,11.3-2.1,11.9-7.7c-3.7-0.7-7.1-2.6-9.9-5.1C12.8,20.3,9.6,21.6,6.3,22.6z M11.9,35.6
			c0.4,1.4,0.8,2.7,1.3,4.1c2,0,4.1-0.1,6.1-0.1c0.4-1.3,0.8-2.6,1.2-3.9C17.6,35.6,14.8,35.6,11.9,35.6z M10.3,36
			c-0.9,2.3-1.7,4.5-2.6,6.8c1.7,0.4,3.4,0.7,5,1.1C11.9,41.3,11.1,38.7,10.3,36z M19.5,44c1.6-0.4,3.2-0.7,4.8-1.1
			c-0.8-2.2-1.6-4.4-2.4-6.6C21.3,38.9,20.4,41.4,19.5,44z M3.1,52c3.7,0,7.5,0,11.2,0l-1.9-2.7c0.8,0.3,2.3,0.9,3,1.2
			c-0.9-1.5-1.7-3-2.3-4.7l-0.9,0.2c0.8,1.3,0,2.5-0.6,3.6c-0.4-0.7-1.1-2-1.5-2.7c0.4-0.5,1.2-1.4,1.6-1.9
			c-1.9-0.4-3.7-0.8-5.6-1.3c0.9-2.5,1.8-5,2.6-7.5C3.5,39.7,1.3,46.1,3.1,52z M23.4,36.4c0.8,2.5,1.7,4.9,2.5,7.4
			c-1.8,0.4-3.5,0.8-5.3,1.2c0.3,0.8,0.9,2.4,1.2,3.2c-0.9,0-2.6-0.1-3.5-0.1l2.3-0.7l-1.5-2c-0.5,1.3-1,2.6-1.5,3.9
			c0.5,0.9,1,1.8,1.5,2.7c3.3,0,6.6,0,9.9,0C30.7,46.2,28.5,39.8,23.4,36.4z M13.5,41c0.8,2.7,1.6,5.5,2.4,8.2
			c1-2.7,1.9-5.4,2.8-8.2C17,41,15.3,41,13.5,41z"/>
	
	<path d="M10.3,23.1c1.6-0.6,2.1,0,1.6,1.7C10.3,25.4,9.8,24.8,10.3,23.1z"/>
	<path d="M19.5,23.1c1.6-0.6,2.2,0,1.7,1.6C19.5,25.3,19,24.7,19.5,23.1z"/>
	
		<path d="M23.5,46.6c1.5,0,2.9,0,4.4-0.1c0,0.9,0,2.8,0,3.7c-1.5,0-2.9,0-4.4,0C23.5,49.3,23.5,47.5,23.5,46.6z M24.9,48"/>

</svg>
