<?xml version="1.0" encoding="utf-8"?>
<!-- Generator: Adobe Illustrator 22.1.0, SVG Export Plug-In . SVG Version: 6.00 Build 0)  -->
<svg version="1.1" id="" xmlns="http://www.w3.org/2000/svg" xmlns:xlink="http://www.w3.org/1999/xlink" x="0px" y="0px"
	 viewBox="0 0 112.9 108.1" style="enable-background:new 0 0 112.9 108.1;" xml:space="preserve">
<style type="text/css">
	.st0{fill:#FFFFFF;}
</style>

		<path class="st0" d="M38.7,2.7c28.4-9.4,62.3,6.2,71,34.1c12.2,31.3-12.9,69.8-48.2,70.9C31.9,111.4,2.8,88.5,0.4,59.9
			C-2.9,35.3,14.1,10,38.7,2.7z M39.5,20.7C28.2,26.2,19.7,36.8,17.9,49C14,71.2,35.8,93.9,59.3,91c24.8-0.7,43.5-28.4,33.2-50.4
			C85,21,58.9,10.7,39.5,20.7z"/>

	<path class="st0" d="M56.2,26.7c2.3,0.3,7,0.9,9.4,1.2c1.1,12.1,0.7,24.2-0.7,36.3c-8.8-0.5-17.6-0.4-26.3-0.5
		c-0.3-2.5-0.7-7.6-1-10.1c6.2,0,12.4-0.2,18.5-0.3C56.4,44.5,56.2,35.6,56.2,26.7z"/>

</svg>
