<svg width="32" height="32" xmlns="http://www.w3.org/2000/svg">


  <title>background</title>
  <rect fill="none" id="" height="402" width="582" y="-1" x="-1"/>

  <title>Layer 1</title>
  <path id="svg_2" fill="#ffffff" d="m4.274,8.663l10.034,7.948c0.455,0.36 1.082,0.52 1.691,0.49c0.609,0.029 1.236,-0.13 1.691,-0.49l10.034,-7.948c0.802,-0.634 0.62,-1.152 -0.4,-1.152l-11.324,0l-11.325,0c-1.021,0 -1.202,0.518 -0.401,1.152z"/>
  <path id="svg_3" fill="#ffffff" d="m28.448,10.76l-10.965,8.324c-0.41,0.309 -0.947,0.459 -1.483,0.453c-0.536,0.006 -1.073,-0.145 -1.483,-0.453l-10.965,-8.324c-0.814,-0.617 -1.48,-0.286 -1.48,0.735l0,13.659c0,1.021 0.836,1.856 1.857,1.856l12.071,0l12.071,0c1.021,0 1.857,-0.836 1.857,-1.856l0,-13.659c0.001,-1.021 -0.665,-1.352 -1.48,-0.735z"/>
 
</svg>