<?xml version="1.0" encoding="utf-8"?>
<!-- Generator: Adobe Illustrator 22.1.0, SVG Export Plug-In . SVG Version: 6.00 Build 0)  -->
<svg version="1.1" id="" xmlns="http://www.w3.org/2000/svg" xmlns:xlink="http://www.w3.org/1999/xlink" x="0px" y="0px"
	 viewBox="0 0 256 256" style="enable-background:new 0 0 256 256;" xml:space="preserve">
<style type="text/css">
	.st0{fill:#0BA3A5;}
</style>
<g>
	<g>
		<path class="st0" d="M21.3,41.2c20.1-27.8,56.1-42.9,90-38c25.4,3.4,49.3,17.3,64.4,38c16.8,22.5,23.2,52.6,16.1,79.8
			c-3,13.8-10,26.4-18.2,37.8c3.3,2.7,6.1,5.9,9.1,8.8c6.3-3.7,15.1-2.9,20.3,2.4c15.3,15.3,30.6,30.7,46,46c2.6,2.7,4.8,6.2,4.5,10
			c-0.2,3.2,0.6,6.7-1.1,9.7c-2.4,4.6-6.5,8.1-10.1,11.7c-3.4,3.2-7.4,6.7-12.4,6.1c-4.6,0.4-9.6-0.1-13-3.6
			c-15.1-14.9-30-30-45-44.9c-6.6-5.2-8.7-15.1-4.3-22.3c-2.9-3.1-6.1-5.8-8.7-9.1c-4.9,3.1-9.5,6.7-14.8,9.4
			c-15,8.1-32.1,12.1-49.1,11.6c-22.3-0.8-44.2-9.8-60.9-24.6C10.2,148.4-2,114.4,3.8,82.7C6.2,67.7,12.3,53.4,21.3,41.2z
			 M89.2,19.6C72,22,55.3,29.6,43,42C29.9,54.6,21.8,72,19.6,90c-0.2,5.3-0.2,10.6,0,15.9c2.3,24.4,16.5,47.5,37.6,60.1
			c12.3,7.3,26.5,12,40.8,11.6c19.8,0.6,39.3-7.5,53.9-20.6c14.3-13.1,23.6-31.7,25.5-51.1c0.2-5.3,0.2-10.7,0-16
			c-2.1-16.6-9.2-32.5-20.4-44.9c-13.1-14.4-31.7-23.6-51.1-25.5C100.4,19.4,94.8,19.4,89.2,19.6z"/>
	</g>
	<path class="st0" d="M89.4,49.5c6.1,0.2,12.2,0.2,18.2,0c-0.1,13.3-0.2,26.6,0.1,39.9c13.3,0.2,26.5,0.1,39.8,0.1
		c-0.2,6.1-0.2,12.1,0,18.2c-13.4-0.4-26.9,0.4-40.3-0.4c0.8,13.4,0,26.8,0.4,40.3c-6.1-0.2-12.1-0.2-18.2,0
		c0-13.3,0.2-26.5-0.1-39.8c-13.3-0.3-26.5-0.2-39.8-0.1c0.2-6.1,0.2-12.2,0-18.2c12.9,0.1,25.7,0.1,38.6,0c0.3-0.3,1-1,1.3-1.3
		C89.5,75.2,89.5,62.4,89.4,49.5z"/>
</g>
</svg>
