<?xml version="1.0" encoding="utf-8"?>
<!-- Generator: Adobe Illustrator 22.1.0, SVG Export Plug-In . SVG Version: 6.00 Build 0)  -->
<svg version="1.1" id="Layer_1" xmlns="http://www.w3.org/2000/svg" xmlns:xlink="http://www.w3.org/1999/xlink" x="0px" y="0px"
	 viewBox="0 0 47 53" style="enable-background:new 0 0 47 53;" xml:space="preserve">
<style type="text/css">
	.st0{fill:#FDFDFD;}
</style>
<g>
	<g>
		<path class="st0" d="M23.6,0.5h2.1c4.6,1.5,6.4,6.4,8,10.5c0.7-0.1,2.1-0.4,2.8-0.5c0.9-0.7,1.5-2.1,2.8-2.1
			c1.8-0.4,2.6,1.5,3.8,2.4c1.8,1.3,3.7,2.6,4.3,5v2.5c-0.7,3.3-2.6,6.1-4.6,8.8c2,2.6,3.9,5.5,4.6,8.8V38c-1.3,6.3-9.1,6-14.1,5.1
			c-0.4,1.8,0,3.7,0.3,5.5c-0.1,1.6-1.8,2-3.1,2.4c-1.7,0.5-3.1,1.7-4.7,2.5h-2.3c-4.6-1.5-6.4-6.4-8-10.5c-4.3,0.5-10.1,1.3-12.9-3
			C0.2,35.3,4,30.6,6.6,26.8c-1.3-2.4-4.9-0.3-6.1-3.1v-2.2c0.4-0.5,1.2-1.5,1.6-2.1c-0.1-2.3-0.3-5,1.6-6.7c3.3-2.9,8-2.2,12-1.7
			C17.3,6.8,19.1,2,23.6,0.5z M17.8,11.4c2.3,0.7,4.5,1.5,6.8,2.4c2.4-0.8,4.8-1.6,7.1-2.4c-1.4-3.4-2.9-8.4-7.2-8.8
			C20.5,3.7,19.1,8.1,17.8,11.4z M5.8,13.8c-2.1,1.2-2.5,4.6-0.6,6.2c1.4,1.5,1.3,3.9,2.7,5.5c1.9-1.8,4.1-3.4,5.9-5.3
			c0.5-2.3,0.8-4.7,1.3-7.1C12.1,12.7,8.7,12.1,5.8,13.8z M34.3,13.1c0.5,2.4,0.9,4.8,1.3,7.2c2,1.6,4,3.3,5.8,5.2
			c1.9-2.6,4.3-5.6,4-9.1c-0.1-1.6-1.5-2.4-2.7-3.2c-1.7,1.9-4.5,1.9-5.8-0.4C36,12.9,35.2,13,34.3,13.1z M17.1,13.6
			c-0.5,1.8-0.1,4.1-1.7,5.5c2.4-1,4.4-2.9,6.8-3.9C20.5,14.6,18.9,14.1,17.1,13.6z M27.3,15.2c2,1.1,4,2.3,6,3.6
			c-0.3-1.3-0.8-3.9-1-5.1C30.6,14.1,29,14.7,27.3,15.2z M15.8,21.7c-0.1,3.4-0.4,6.9,0.1,10.3c2.3,2.6,5.8,3.9,8.8,5.6
			c3.1-1.5,6-3.2,8.9-5.1c0.3-3.6,0.3-7.3,0-11c-2.7-1.9-5.6-3.5-8.5-5.1C21.7,17.7,18.6,19.5,15.8,21.7z M9.5,27
			c1.4,1.3,2.8,2.5,4.2,3.8c-0.1-2.6-0.1-5.1,0.1-7.7C12.3,24.4,10.9,25.7,9.5,27z M35.8,23.1c0.1,2.6,0.1,5.2,0,7.8
			c1.4-1.3,2.8-2.6,4.2-3.9C38.5,25.7,37.2,24.4,35.8,23.1z M4.7,39.2c2.6,2.9,7,2.1,10.5,1.7c-0.5-2.3-0.8-4.7-1.3-7
			c-1.7-2-4-3.5-5.9-5.4C5.9,31.5,2.7,35.4,4.7,39.2z M35.6,33.7c-0.3,2.4-0.8,4.8-1.3,7.1c3.5,0.5,8.2,1.3,10.6-1.9
			c1.7-3.8-1.4-7.4-3.5-10.4C39.5,30.4,37.6,32.1,35.6,33.7z M15.4,34.9c1.5,1.4,1.2,3.7,1.7,5.5c1.7-0.5,3.4-1.1,5.1-1.6
			C19.8,37.8,17.8,35.9,15.4,34.9z M27.3,38.8c1.7,0.6,3.4,1.1,5.1,1.5c0.3-1.7,0.6-3.4,0.9-5.1C31.4,36.5,29.3,37.7,27.3,38.8z
			 M17.8,42.5c1.3,3.2,2.5,7,5.9,8.6c1.6,0.8,3.1-0.5,4.4-1.4c-0.1-1.4-0.5-3.1,0.7-4.2c1.2-0.8,2.8-1.3,3-3
			c-2.4-0.8-4.8-1.6-7.1-2.4C22.3,41,20,41.8,17.8,42.5z"/>
	</g>
	<g>
		<path class="st0" d="M22.9,23.2c2.8-1.6,6.4,1.3,5.8,4.4c-0.2,2.6-3.3,4.6-5.7,3.3C20,29.6,19.9,24.6,22.9,23.2z M24,25.1
			c-2.6,0.9-0.8,5.1,1.6,3.7C27.9,27.8,26.2,24.1,24,25.1z"/>
	</g>
</g>
</svg>
