<?xml version="1.0" encoding="utf-8"?>
<!-- Generator: Adobe Illustrator 22.1.0, SVG Export Plug-In . SVG Version: 6.00 Build 0)  -->
<svg version="1.1" id="Layer_1" xmlns="http://www.w3.org/2000/svg" xmlns:xlink="http://www.w3.org/1999/xlink" x="0px" y="0px"
	 viewBox="0 0 45 41" style="enable-background:new 0 0 45 41;" xml:space="preserve">
<style type="text/css">
	.st0{fill:#FFFFFF;}
</style>
<g>
	<g>
		<path class="st0" d="M34.2,0.5h3.5c4,1.3,7.1,4.6,7.8,8.7V12c-0.3,7.7-10.7,12.4-16.4,6.8C22.6,13.6,25.7,1.6,34.2,0.5z M28.6,8.6
			c-1.2,3.4,0.6,7,3.3,9.1c1.4-4.8,2.6-9.7,3.9-14.5C32.6,3.4,29.5,5.4,28.6,8.6z M38.5,3.8c-1.3,4.9-2.7,9.7-3.9,14.6
			c2.8-0.1,5.8-1.1,7.1-3.7C44.1,11,42.3,5.8,38.5,3.8z"/>
	</g>
	<g>
		<path class="st0" d="M3.8,7.8c3.5-2.7,9-1.9,11.6,1.6c4.9,6.2,9.8,12.3,14.5,18.7c3.4,4.9,0.3,12.5-5.7,13.4h-2.4
			c-2-0.5-3.9-1.4-5.2-3.1C12,32.7,7.5,26.9,2.9,21.1c-1.2-1.4-2-3.1-2.4-4.9v-2.6C1,11.4,1.9,9.2,3.8,7.8z M3.4,16.5
			c1.8,3.7,4.9,6.6,7.3,10c2.9-2.5,5.8-4.9,8.7-7.4c-2.7-3.1-4.7-6.9-8-9.4C7.1,7,1.8,12,3.4,16.5z M12.4,28.6
			c2.7,3.1,4.7,7,8.1,9.4c4.5,2.6,9.9-3,7.6-7.5c-2-3.4-4.8-6.2-7-9.3C18.2,23.7,15.3,26.1,12.4,28.6z"/>
	</g>
</g>
</svg>
