<?xml version="1.0" encoding="utf-8"?>
<!-- Generator: Adobe Illustrator 22.1.0, SVG Export Plug-In . SVG Version: 6.00 Build 0)  -->
<svg version="1.1" id="Layer_1" xmlns="http://www.w3.org/2000/svg" xmlns:xlink="http://www.w3.org/1999/xlink" x="0px" y="0px"
	 viewBox="0 0 41 53" style="enable-background:new 0 0 41 53;" xml:space="preserve">
<style type="text/css">
	.st0{fill:#FDFDFD;}
</style>
<g>
	<g>
		<path class="st0" d="M19.1,0.5h0.9c2.5,0.7,5.1,1.4,7.6,2.3c0,0.8-0.1,2.3-0.1,3.1c0.4,0.3,1.2,0.8,1.6,1c-0.2,0.8-0.7,2.3-1,3
			c-0.9,1-1.9,2-2,3.4c1.9,2.1,4.8,2.8,6.9,4.6c5.9,4.6,8.2,12.4,8.5,19.6v15.9h-41v-7.2c6.7-0.2,13.3,0,20-0.1
			c2.1,0,2.7-2.6,3.9-3.9c-7,0-14,0-21,0c0-1.4,0-2.8,0-4.2c7.6-0.1,15.3,0,22.9,0c1.6-5.2,0.8-10.9-2.5-15.3c-2.1,2.8,0.2,5.9-1,9
			c-0.9-0.2-2.6-0.7-3.4-0.9c-0.4,2.3-1.7,3.3-4,2.8c0.9-0.8,1.8-1.5,2.7-2.3c-1.6-0.8-3.3-1.4-5.1-1.8c0.3,0.4,0.9,1.1,1.3,1.5
			l2.4,0.8c-1.7,0.8-3.4,1-5.1,0.1c0.2-0.8,0.6-2.4,0.9-3.2c-1.1-0.3-2.2-0.6-3.3-1c0.3-1.1,0.6-2.3,0.9-3.4c0.9-0.9,1.8-1.7,2-3
			c1.2-4.4,2.4-8.7,3.4-13.1c-0.4-1.8-0.1-3.6,0.2-5.4c0.7,0.1,2.1,0.3,2.8,0.4C18.5,2.6,18.9,1.2,19.1,0.5z M21.4,4.2
			c1.7,0.2,3.9,2,5.3,0.2c-2.2-1-4.5-1.7-6.9-2.3C19.8,3.3,20.1,4.2,21.4,4.2z M16.7,4.7c-0.1,0.4-0.2,1.1-0.3,1.5
			C20,7,23.5,8.2,27,9c0.1-0.3,0.3-0.9,0.3-1.1C23.8,6.9,20.3,5.8,16.7,4.7z M17.5,8.6c-1.4,5.1-2.8,10.3-4.2,15.5
			c2.4,0.7,4.9,1.4,7.3,2.1c0.4-1.3,0.8-2.7,1.1-4c-1.2-1.5-3.2-2.5-3.3-4.5c-0.3-2.1,1-4.7,3.2-5.1c1.2-0.4,3,0,3.4-1.7
			C22.5,10.1,19.9,9.4,17.5,8.6z M27.9,17.1c-0.5,1.7-1.3,3.3-2.6,4.6c5.9,7,4,17.2-0.8,24.2c4.9,0.1,9.9,0,14.9,0.1
			C40.7,35.4,38.5,22.2,27.9,17.1z M10.4,25.6c0.2,0.3,0.6,0.8,0.8,1.1c3.4,1.4,7,2.1,10.5,3.3l0.3-1.2
			C18.1,27.8,14.3,26.4,10.4,25.6z M4.4,39.6l0.1,1.2c6,0,12.1,0,18.1,0c1.2,0.1,2.2-0.3,3.2-1C18.6,39.3,11.5,39.7,4.4,39.6z
			 M2.4,48.2c0,0.8,0,2.5,0,3.3c12.4,0,24.8,0,37.2,0c0-0.8,0-2.4,0-3.2C27.2,48.5,14.8,48.1,2.4,48.2z"/>
	</g>
</g>
</svg>
