<?xml version="1.0" encoding="utf-8"?>
<!-- Generator: Adobe Illustrator 22.1.0, SVG Export Plug-In . SVG Version: 6.00 Build 0)  -->
<svg version="1.1" id="Layer_1" xmlns="http://www.w3.org/2000/svg" xmlns:xlink="http://www.w3.org/1999/xlink" x="0px" y="0px"
	 viewBox="0 0 43 45" style="enable-background:new 0 0 43 45;" xml:space="preserve">
<style type="text/css">
	.st0{fill:#FEFEFE;}
</style>
<g>
	<g>
		<path class="st0" d="M15.2,0.5h13.4c0.2,3,0.1,5.9,0.1,8.9c2.4-1.7,4.7-3.5,7.1-5.1c2.6,3.5,5.1,7,7.5,10.6v0.9
			c-3.2,2.4-6.5,4.8-9.8,7.2c3.3,2.4,6.5,4.9,9.8,7.2v1c-2.4,3.6-5,7.1-7.5,10.6c-2.4-1.6-4.8-3.4-7.1-5.1c0,3,0,5.9,0,8.9H15.3
			c-0.2-3-0.1-5.9-0.1-8.9c-2.4,1.6-4.5,4-7.3,4.8c-2.7-3.2-5-6.8-7.4-10.2v-0.9c3.3-2.4,6.5-4.8,9.8-7.3c-3.3-2.4-6.5-4.8-9.8-7.2
			v-0.9c2.4-3.6,5-7.1,7.5-10.6c2.4,1.6,4.8,3.4,7.2,5.1C15.2,6.4,15.2,3.5,15.2,0.5z M17.4,2.8c-0.1,3.5,0.4,7-0.5,10.4
			c-2.9-1.7-5.6-3.8-8.3-5.8c-1.9,2.5-3.7,5-5.4,7.6c3.6,2.6,7.1,5.1,10.6,7.8c-3.2,3.2-7,5.5-10.6,8.2c1.8,2.6,3.6,5.1,5.5,7.6
			c2.7-2,5.3-4.1,8.2-5.8c0.9,3.4,0.4,6.9,0.5,10.4c3.1,0,6.2,0,9.2,0c0.1-3.5-0.4-7,0.5-10.4c2.9,1.7,5.5,3.8,8.2,5.8
			c1.9-2.5,3.7-5,5.5-7.6c-3.6-2.7-7.4-5.1-10.6-8.2c3.5-2.7,7.1-5.3,10.6-7.9c-1.7-2.6-3.6-5.1-5.5-7.6c-2.7,2-5.3,4.1-8.2,5.8
			c-0.9-3.4-0.4-6.9-0.5-10.4C23.5,2.8,20.5,2.8,17.4,2.8z"/>
	</g>
	<g>
		<path class="st0" d="M21.5,18.4c-0.5-2.4-0.3-4.9,0.5-7.2c-0.2,2.6,2.7,4.1,2.8,6.3c-0.6,0.2-1.8,0.6-2.4,0.8
			c0.8,1.4,3.5,2.4,2.6,4.2c-0.6,0.5-1.7,1.4-2.3,1.9c0,1.8,1,3.1,2,4.5c-2.2-0.4-1.9,0.8-0.4,1.6c-2.9,1.2-0.9,5-1.5,7.4l-1.3-0.1
			c-0.5-2.1-0.3-4.3-0.1-6.4c-0.6,1.1-1.2,2.3-1.8,3.4c-0.6-2.1,0-3.7,1.7-4.8c0-0.4,0.1-1.3,0.1-1.8c-0.9-0.8-1.7-1.6-2.4-2.5
			c0.1-1.8,2.6-2.3,2.5-4.2c0.3-2.3-3.9-2.6-3-4.9l1.4-2.1c0.6,1.1,0.3,2.2-0.3,3.2C20,17.8,21,18.2,21.5,18.4z M22.7,20.9
			 M20.6,24.6"/>
	</g>
</g>
</svg>
