<svg id="Layer_1" xmlns="http://www.w3.org/2000/svg" viewBox="0 0 386.1 242.3"><style>.st0{fill:#a00}.st1{fill:#fff}</style><path class="st0" d="M194.4 6.5c3.3-1.3 7.3-1.7 10.3.5 5.1 3.4 8.8 8.6 13.6 12.4 1.4.5 2.8 1 4 1.9 3 .9 5.9 1.6 8.9 2.3-6.4 0-12.8.1-19.2 0l-.1.8c-4.4-.2-8.5 1.1-12.7 2.3-2.1 1-4 2.3-5.4 4.2-.1-2.7-.7-5.3-1.3-7.9-.3-1.1-.6-2.3-.9-3.5h-4.5c-.8 1.5-1.7 3-2.5 4.5.1-2.3-.3-4.8.8-7 .9-2.3 2.1-4.4 3.6-6.3 1.9-1.4 3.6-2.8 5.4-4.2zM178.4 15.5c.9-.7 1.8-1.1 2.9-1.4-.6 1.4-1.2 2.8-1.7 4.3l-.5.1c-.1 1.9-.3 3.7-.9 5.5-.2 2.4-.3 4.8-.4 7.2-2.2.5-4.4 1.1-6.6 1.7-2.9.9-5.9 1.5-8.9 2-1.7.5-3.4.8-5.1 1.1-2.1.5-4.2.7-6.4.8v.8c-1.8 0-3.7.1-5.5.3-2.3 1.1-5 .9-7.5.9v.9c-2.7.1-5.3.2-8 .2l.1.8c-2.9.1-5.7.1-8.6.3-3.2 1.2-6.6.7-10 .9-13.3 1.6-26.7.9-40 .9C66 42 60.5 41.3 55 41.4v-.8c-2.8 0-5.8.1-8.5-.8-2-.1-4.1-.3-6-1-1.7-.2-3.3-.5-5-1-3.1-.5-6.1-1.1-9-2.2-.6 0-1.8-.2-2.4-.2v-.8c-4.2-.4-7.9-2.4-12-3.4l-.1-.4c-2-.4-4-.9-5.5-2.3-.2 0-.7.1-.9.1C4.2 28 1.4 27 0 26.4c3.7-.1 7.3-.1 10.9.1v.9c3.2 0 6.5-.3 9.5.8 7.5.3 14.9 1.8 22.5 1.4l.1.8c9.2 0 18.4-.1 27.5.9 5 .1 10 .3 15-.5 7-.5 14-.2 21-.6 4.4-1.2 9.1-.7 13.6-.8l-.1-.8c2.5 0 5.1-.1 7.6-.4 2.7-.8 5.6-.8 8.4-.8v-.8c1.8-.1 3.6-.1 5.5-.3 3.3-.9 6.7-1.4 10-2.1 2.7-.7 5.4-1.3 8-2.1 1.5-.4 3-.6 4.5-.8v-.8c.6-.1 1.8-.2 2.4-.2 1.2-.4 2.4-.8 3.6-1.1v-.6c1.7-.4 3.3-.9 5-1.3l.1-1c.5.1 1.4.3 1.8.4l.2-1.2c.3-.1 1-.1 1.3 0z"/><path class="st0" d="M230.1 21.3c5.5-.2 11.1.4 16.4 2 8.5.5 16.9 2.7 25.5 2.3v.8c4.6-.1 9.3.1 13.9.2l.1.8c6.5-.2 13.2-.1 19.4 1.9l4.5.3v.7c2.7.2 5.3.9 7.9 1.4l.1.5c3.3.5 6.5 1.5 9.4 3.3.4 0 1-.1 1.4-.1l.2 1.3c.5-.1 1.4-.3 1.8-.4l.1.9c4.7 1.6 9 4.5 13 7.4 4.1 3.3 4.7 8.7 6.5 13.2-4.5-1-9-1.5-13.5-1.4v-1c-.7.1-2 .3-2.6.4.5-1.5.9-3.2 2.5-3.7.3-2.2.2-4.4-.9-6.4-3.3-1.8-6.2-4.5-9.9-5.4l-.1-.6c-2.2-.5-4.3-1.2-6.4-2-1.4-.3-2.8-.5-4.1-1-6.3-.6-12.7-.5-19 0-1.7.8-3.6.9-5.5.9l-.1.6c-3.9.4-7.2 2.7-10.5 4.6-5 3.3-9.5 7.1-14 11-20.1 18-37.2 39.7-60.2 54.4-2.8 1.9-5.8 3.4-8.6 5.3-.4 0-1.1-.1-1.4-.1l-.2 1.3c-.4-.1-1.3-.2-1.8-.3l-.2 1.3c-.5-.1-1.4-.2-1.9-.3l-.1 1.4c-.4-.1-1.1-.2-1.4-.2-2.2 1.5-4.7 2.4-7.1 3.3-.9.4-1.9.7-2.9 1.1-1 .3-2 .6-3 1-1 .3-2 .7-3 1-2.3.7-4.7 1.4-7 2-2.3.2-6.9.6-9.2.9 4.2-.8 8.3-2.2 12.3-3.6 1.3-.5 2.5-1.1 3.8-1.6 1.5-.5 3-1 4.6-1.4l.1-.9c.3.1 1.1.2 1.4.3 5.3-2.9 10.8-5.3 16-8.4 8-4.9 15.6-10.4 22.9-16.3 11.5-11 22.7-22.1 33.2-33.9 5.2-5.8 10.2-11.9 15.2-17.9 1.6-1.7 1.4-4.2 1.3-6.3-1.8-1.3-3.5-2.7-5.3-4-2.2-.8-4.4-1.9-6.7-2.5l.1-.5c-1.2-.3-2.4-.7-3.5-1.1-.6 0-1.9-.2-2.5-.2v-.8c-2.6-.3-5-1-7.4-1.9-4.6-1.2-9.1-2.8-13.6-3.6z"/><path class="st0" d="M185.5 29c.8-2.1 1.8-4.2 3.4-5.8.8 3.2 1.3 6.5 1.3 9.8.3 1.3.6 2.5.9 3.8.9-.1 1.7-.2 2.6-.3 2-2.1 4.2-4 6.9-5.3 2.6-1.5 5.5-2 8.4-1.9v-.8c2.2-.1 4.3-.2 6.5-.3 6.7-1.4 13.9-.9 20.6.6.1 1.1.1 2.2.2 3.4-1.3.7-2.5 1.4-3.7 2.1-2.6 1-5 2.2-7.5 3.4-2.1 1.7-3.8 3.7-4.9 6.1 0 2.2-.1 4.3-.1 6.5-2.1-5.6-5.4-11-10-14.9-1.5 0-3 .1-4.5.2-3 3.5-5.8 7.1-8.1 11.1-1.8 3.3-3.4 6.7-5.1 10.1-.8 2.2-1.2 4.5-1.5 6.8 3.8 1.6 8 .4 12 .7-1.9.7-3.7 1.5-5.5 2.3-2.6 2.1-5.3 4-7.9 6.1-.7.7-1.4 1.3-2.1 2-1.8 2.2-2.6 5.5-5.5 6.4.5-2.4 1.1-4.8 2-7.2.3-1.4.6-2.7.9-4.1.7-3.3 1.3-6.7 2.1-10 .4-6.3.6-12.7 0-19-.4-1.3-.7-2.7-1.1-4-1.4-2.3-1.4-5.3-.3-7.8z"/><path class="st0" d="M240.6 27.5c2.5 1.5 6 3 5.7 6.5-4.3 4.7-10.1 7.3-15.5 10.5.1.9.1 1.8.2 2.7 1.5.2 3 .4 4.5.8 1.8.5 3.7 1 5.5 1.7V52l-4.8 4.2c-9.5 5.9-19.7 10.9-28.6 17.8-5.3 4-10 8.7-14.3 13.8-2.9 3.8-5.8 7.6-8 11.8-1.4 2.8-3.8 5.1-6.9 6.1-1.6 1-3.3 1.6-5 2.2-1.1.4-2.2.7-3.4.9v.5c-1.9.4-3.7 1-5.6 1.5-5.2 1.7-10.6 2.9-16 4-1.7.4-3.4.7-5.1 1-1.9.5-3.9.8-5.9 1-2.9.8-5.9.7-8.9.9-2.6.2-7.9.6-10.6.8 4.8-.9 9.7-1.6 14.5-2.4 4-1.2 8.1-2 12.1-3.1 2.3-.8 4.7-1.5 7.1-2 1-.3 2-.7 2.9-1 1.1-.4 2.2-.7 3.4-.9l.1-.5c1.6-.4 3.1-1 4.6-1.6 1.1-.3 2.2-.6 3.4-.9l.1-1c.5.1 1.4.3 1.9.5l.2-1c5.3-1.7 10-4.9 14.1-8.5-.1-.4-.4-1.1-.5-1.5l1.4-.2c-.1-.5-.3-1.4-.4-1.8l1-.1c3-9.8 10.4-17.7 19.3-22.8 3.7-2.2 7.4-4.4 11.1-6.4 1.1-.9.7-2.6 1.1-3.9l-1.4.1c.1-1.9.1-4 1.6-5.4 1.7.2 3.3.7 4.2 2.3.8.1 2.4.2 3.2.2.7-2.8 1.3-5.7 1.8-8.6.4-1.3.7-2.6 1.1-3.9.2-.5.5-1.6.7-2.2 4.8-2.4 10-4 14.6-6.8-.1-.4-.3-1.2-.3-1.6l1.4.1c-.5-2.1-1-4.1-1.6-6.1z"/><path class="st0" d="M249.9 31.2c2.6.7 5.1 1.6 7.6 2.5 2.1 1.3 4.3 2.8 5.4 5.2.2 1.5-.8 2.7-1.7 3.8-6.3 7.4-12.7 14.6-19.1 21.9-12.9 13.2-25.7 26.8-40.9 37.3-3.3 2.1-6.4 4.7-10.1 6l-.2.9c-.4-.1-1.3-.2-1.8-.3l-.2 1.3c-.5-.1-1.4-.2-1.8-.3l-.2 1.3c-.4-.1-1.1-.2-1.4-.2-1.5 1.3-3.5 1.9-5.4 2.3v.5c-1.6.4-3.1 1-4.6 1.6-1 .3-1.9.7-2.9 1-2.3.9-4.6 1.5-7 2-1.3.4-2.6.7-3.9 1-4.9 1.4-9.9 2.4-15 1.6 5.2-.6 10.1-2.1 15.1-3.3 4-1.3 8-2.7 12.1-4 1.3-.5 2.6-1.2 3.9-1.8.4 0 1.1.1 1.4.2l.2-.8c9.8-3.6 18.3-10.1 26.4-16.6 5.4-4.2 10.6-8.8 15.5-13.7 9.4-8.7 19.4-17.2 25.9-28.4v-4.8c-.5.1-1.4.3-1.8.4l-.1-1c-1.7-.5-3.4-1.1-5-1.6.1-.7.1-1.4.2-2.1 3.8-1.3 7.3-3.8 9.1-7.5h.7c-.4-1.5-.4-3-.4-4.4zM176.8 36.6c1.2-.5 2.4-1.4 3.7-1 .3 1.2.5 2.3.7 3.5.6 2.1.8 4.3 1 6.5-1.3.4-2.7.9-4 1.3-1 .3-1.9.7-2.9 1-1.3.3-2.7.7-4 1-1.3.3-2.7.7-4 1-1.3.4-2.7.7-4 1-2.9.8-6 1.4-9 2-3.6.9-7.3 1.5-11 2-1.9.8-4 .8-6 .9-2.4 1-4.9.9-7.4.8v.8c-5.9-.2-11.6 1.4-17.5 1.3-2.3.8-4.7.7-7.1.8-10.3.1-20.6.1-30.9 0-2.3 0-4.8 0-7-.8-2.7-.2-5.5.1-8-1-1.9-.2-3.7-.2-5.6-.3v-.9c-1.7 0-3.3-.1-5-.1v-.8c-2.9-.2-5.9-.6-8.5-2.1-.6 0-1.9-.1-2.5-.1v-1h-3v-.7c-1.2-.3-2.4-.6-3.5-1.1-.2 0-.6-.1-.9-.2-1.4-.4-4.4-1.5-6-2.1 2.9.1 5.7.1 8.6.2v.9c4.2.2 8.5-.4 12.5.8 6.9.3 13.9.3 20.8.8 12.3 1 24.8.2 37.2.4 11-1.1 22-1.8 33-3.2 5.4-.9 10.7-2 16.1-3 2.6-.8 5.3-1.4 8-2 3-1.1 6.1-1.9 9.1-3 1.7-.8 3.4-1.5 5.3-2l.1-.9c.5.1 1.4.3 1.8.4l-.1-1.1zM206.8 38.9c3.4.9 4.7 4.4 6.8 6.9-1.1-.1-2.2-.3-3.3-.4-.5 1.1-1.1 2.2-1.9 3.1-1.8-2.9-1.7-6.3-1.6-9.6zM295.5 41.1c5.8-1.2 12-1.2 17.9 0 1.4.3 2.7.7 4.1 1.1.6.1 1.9.2 2.5.2v.7c1.1.3 2.3.5 3.4.8 3.1 1.3 6.1 2.8 8.8 4.9 0 2.2-1.1 4.1-2.4 5.8l-.9-.2c0 1.3.1 2.6.1 4h2.9v.9c2.5 0 5.1.1 7.5.8 2.4.1 4.7.3 7 .8 1.4.5 3.2.6 4 2.1 1 2 .9 4.3 1.9 6.3 1.9 2.8 4.7 4.9 7.8 6.2-4.3.2-8.6-.2-12.7-1.6-.2-.4-.7-1.2-.9-1.6-.4.1-1.1.2-1.4.2l-.1-1.1c-1.4 0-2.7 0-4-.1v-.9c-2.3 0-4.6-.1-6.9-.2l-.1-.8c-2.5.1-5.1 0-7.5-.6-3.1-.4-4.8-3.1-4.9-6.1-.4-1.7-.9-3.5-1.6-5.1v-1.5c-.5.1-1.4.3-1.9.5l-.1-1-3.6-1.2c-3.3-.2-6.7-.2-10 .1-1.7.8-3.6.9-5.5.9v.8c-1.7 0-3.3.1-4.9.1v.8c-2.2 0-4.5 0-6.7.1-8.1 5.8-15.6 12.6-22.9 19.3-10.3 9.2-20.3 18.7-31.3 26.9-4.2 3.3-8.9 5.9-13.6 8.5-1.2.5-2.4.9-3.6 1.4l-.1.6c-1.2.4-2.3.9-3.5 1.3-3 1.7-6.1 3.2-9.4 4.2l-.1.5c-2.2.7-4.3 1.6-6.5 2.5-1.7.7-3.3 1.4-5 2-1.7.7-3.3 1.4-5 2.2-1.8.5-3.7.7-5.6.9 2.6-1.1 5.4-1.8 7.7-3.4.3 0 1 .1 1.4.1l.2-.9c9.7-4.3 18.7-9.9 27.8-15.5 3.9-2.6 7.8-5.3 11.3-8.6 6.7-5.7 12.8-12.1 18.5-18.7.6-.6 1.3-1.2 1.9-1.9 8.2-8.7 16-17.9 25.1-25.9 4.7-3.8 9.3-8.5 15.4-10v-.6c1.8 0 3.7-.5 5.5-1z"/><path class="st0" d="M196.5 55.4c1.4-5.8 8.2-8.7 13.7-6.4-4 .4-9.3-.1-11.7 4-1.8 2.4.5 4.9 2.7 5.8-.1.4-.2 1.2-.3 1.6-2.1.6-4.3 1.1-6.5 1.4.5-2.1 1-4.2 1.6-6.3l.5-.1zM177.5 53.6c1.4-1.7 3.3-2.8 5.3-3.6 0 1.9.1 3.7.1 5.6h-.8v5.7c-.4.3-1.1 1-1.5 1.3-1.5.5-3 .9-4.6 1.3v.5c-3.9 1-7.6 2.7-11.6 3.5-2.2 1-4.6 1.6-7 2-2.5 1.1-5.3 1.6-8 2-1.3.4-2.6.8-3.9 1.1-1.8.5-3.6.7-5.5.7v.8c-1.7 0-3.3.1-5 .1l-.1.9c-2 0-4 .1-6 .1v.9c-1.8 0-3.7.1-5.5.3-2.7 1.2-5.7.8-8.5.8v.8c-3.6.1-7.1 0-10.7.5-6.1.9-12.2.4-18.3.5v-.8c-3.7.1-7.3 0-10.9-.2l-.1-.8c-2.2 0-4.4.1-6.5-.7-4.9-.8-9.6-2.4-14.4-3.3 10.1-.7 20.3.6 30.4-.9 3.7-.3 7.3-.1 11-.4 3.7-1.2 7.7-.8 11.5-.8v-.8c2.5-.1 5-.1 7.5-.4 2.2-.9 4.7-.8 7-1 1.9-.6 4-.8 6-1.1 2.1-.7 4.3-.8 6.4-.8v-.8c1.7 0 3.3-.1 5-.1v-.8c5.6-.7 11.2-2.2 16.6-4l2-.4c2-.8 4-1.5 6.1-2.2 1.1-.3 2.3-.6 3.4-.9v-.6c1.7-.5 3.3-1 5-1.4l.1-1c.5.1 1.4.3 1.8.3l.2-1.3c.4.1 1.3.3 1.8.3l.2-1.4c.5.2 1.2.4 1.5.5zM234.3 62c.7-.8 1.5-1.7 2.7-1.5-6 4.6-10.8 10.5-16.8 15.2-7.8 7.4-16.3 14-24.6 20.8-.6.1-1.8.4-2.3.5 1.5-3.7 4.1-6.7 6.5-9.8 7.1-8.5 16.9-14 26.1-19.9 2.7-1.9 5.6-3.5 8.4-5.3zM297.3 61.3c1.6-.7 3.4-1 5.1-1.2 3.6-1.1 7.3-.8 11-.2 1.1.8 2.8 1.3 3.4 2.7.4 2.2.2 4.4.2 6.6-.4-1.2-.8-2.5-1.2-3.7h-1v-1.3c-.4.1-1.3.4-1.8.5l-.1-1.3c-4 .9-8.1 1.5-12.3 1.2 0 .4.1 1.3.2 1.8 2.9 2 5.8 4.1 9.3 5.2.8.9 1.5 1.9 2.2 2.8 1.3 0 2.7 0 4-.1l-1.2 3.6c-.3.9-.6 1.8-.8 2.6-1.2-.1-2.3-.2-3.4-.3 0 .5.1 1.6.2 2.1l-1.1.1c0 .5 0 1.6.1 2.2-.6 0-1.7-.1-2.3-.1 1.6-3.3 1.2-6.9 0-10.2-.4.1-1.3.3-1.7.4l-.1-.9c-6.5-2.3-10.5-8.3-15.6-12.5 2.3.2 4.6.2 6.9 0zM267.5 81.9c6.1-6.1 12.8-11.6 18.9-17.7-.7 1.1-1.4 2.3-2.1 3.4-1.2 5.2-.9 10.5-1.3 15.8-2.8 6.3-8.4 10.6-13.8 14.4-6.4 4.3-13.1 8.2-19.8 12-2.1 1.4-4.1 2.7-6.2 4-5.3 3.6-9.9 8.2-13.9 13.2-3.7 5.1-7.6 10.2-12.9 13.7-5.7 3-11.2 6.2-16.9 9.2l-10.2 6c-4 3-8.8 5.3-11.4 9.7l-1.1.1c1.2 5.4 7.6 5.1 11.8 6.6 1 .3 2 .5 3.1.7.9.9 1.9 1.9 2.7 2.9-1.2 3.1-2.6 6.1-4.4 8.8-5.6 8.4-13.1 15.9-15.8 25.9h-.6c-.3 1.2-.6 2.3-.9 3.5l-1.5 6.9c-.8-6.4 1.3-12.6 2.8-18.8.3-1.3.6-2.7 1-4 .6-3.3 1.3-6.7 2.1-10 .3-2.9.3-5.8.1-8.7-.3.1-1 .3-1.3.4-2.5-2.2-6-3.3-7.4-6.6-.5-2.8-.3-5.6-.2-8.4-3.5-5.6-10.8-3.8-16.3-4.3 1.9-.4 3.9-.9 5.9-1.4 1.1-.3 2.3-.7 3.4-.9v-.5c1.6-.4 3.1-.9 4.7-1.4.9-.4 1.9-.8 2.9-1.2 1.2-.3 2.3-.6 3.5-.9v-.6c1.5-.4 3.1-.9 4.6-1.3 1.6-.9 3.3-1.5 5.1-2.1 3.4-1.5 6.8-3 10.4-4v-.5c3.1-.8 5.8-2.7 8.9-3.5l.1-1c.5.1 1.4.3 1.8.4l.2-1.3c.4.1 1.4.3 1.8.3l.2-1.4c.4.1 1.4.2 1.8.3l.2-1.3c.3 0 1 .1 1.4.2 1.9-1.7 4.4-2.6 6.3-4.2 3.3-2.7 5.7-6.3 8.6-9.4 8.6-11 19.7-19.7 29.6-29.5 1.9-1.7 3.5-4.1 6.2-4.3-.1-.3-.5-.9-.6-1.2 2.8-2.3 5.5-5.2 8.5-8z"/><path class="st0" d="M289.3 65.7l.9 2.4c3.1 3.1 6.9 5.4 9.9 8.6 0 1.6-.1 3.2-.1 4.8l-.8.1c-.3 2.7-2.1 4.8-3.5 7-4.4 5.2-8.7 11.6-15.8 13.2l-.1.5c-1.6.5-3.1 1-4.6 1.6-1.1.4-2.2.7-3.3 1l-.1.4c-2.6.7-5.1 1.6-7.5 2.6-1.6.6-3.4.7-5.1.9 5-2 9.3-5.2 13.6-8.3 5.6-4 10.7-9 13.9-15.3.3-1.1.7-2.1 1-3.2.4-5.4-.9-11.2 1.6-16.3zM305 66.5c2.8-.2 5.6-.3 8.5-.1 1.1 1.4 2.2 2.7 3.4 3.9-1.1.3-2.2.7-3.3 1.1-2-3-5.4-4-8.6-4.9zM178.5 69c.4-.6 1.2-1.7 1.6-2.3.3 3.9-.7 7.7-1.6 11.4-2.1 1-4.1 1.8-6.3 2.6-1.6.8-3.3 1.5-5 2.1-1 .3-1.9.6-2.9.9-1.4.5-2.7 1.1-4.1 1.6-.5.1-1.5.2-2 .3-2.2 1-4.6 1.7-7 2.1-2.7 1.2-5.5 1.8-8.4 1.9v.8c-1.2.1-2.3.2-3.5.2-5.4 1.5-10.9 2.9-16.5 2.9v.8c-2.5.1-5 .2-7.5.4-4.5 1.3-9.3.6-13.9.8-4.7-.2-9.5.4-14.1-.8-2-.2-4-.4-5.9-1-2.9-.4-5.8-1.2-8.7-2 6.2-.4 12.5-.2 18.7-.5 3.6-.6 7.3-.8 10.9-1 2.7-1 5.6-.9 8.5-.8l.1-.8c2.3-.1 4.7-.2 7-.2v-.8c4.9-.1 9.6-1.7 14.5-2.4 3.1-.9 6.2-1.7 9.5-1.9l.1-.6c2.2-.4 4.4-.9 6.5-1.5 5-1.7 10.1-3.2 15-5 1.7-.9 3.5-1.6 5.4-1.9v-1c.5.1 1.4.3 1.9.4l.2-1.3c.4.1 1.4.3 1.8.3l.2-1.4c.3.1 1.1.2 1.4.3 1.2-1.2 2.6-2.1 4.1-2.6zM318.9 69.2c.3.6 1 1.8 1.3 2.4l1.6-.4.1 1c5.1 1.2 10.3 1.6 15.6 1.8-3.1.4-6.1 1.1-9.1 1.7-3.4 1.3-7.1 2.1-9.7 4.7.2-3.6.2-7.4.2-11.2zM334.4 78.1c4.6-1.2 9.3-.6 14-.7 5.4-.2 10.4 1.9 15.5 3.3v.6c1.9.3 3.7 1 5.3 2 1.7.8 3.5 1.5 5.2 2.3-3.7.1-7.4.6-11-.5-1-.4-1.9-.8-2.9-1.2-4.4-1.5-8.7-3.3-13.4-3.7l-.7-2.2c.5 3.5-3.1 2.3-5 3-1.5.4-3 .7-4.5.9l-.1.8h-2.9v.8c-2.1.5-4 1.5-5.9 2.5-1 .7-2 1.3-3 1.9-4.8 3.8-8.5 8.7-11.7 13.9-5 7.5-9.2 17-18.3 20.3l-.1.9c-.3 0-1 0-1.4-.1-1.1.5-2.3.9-3.6 1.2l.1.6c-1.9.4-3.8.9-5.6 1.4-2.2 1.1-4.6 1.5-6.9 2-4.2 1.3-8.3 2.8-12.5 3.9l-.1.9c-.4-.1-1.1-.1-1.4-.2l-2 1.2c-7.5 4.4-15.7 9.7-19.2 18.1-.9 2.3-1.3 4.7-1.6 7.1-.5 3.2.8 6.4.5 9.6h.9c0 .6.1 1.9.1 2.6 1.1 2.1 2.1 4.2 3 6.3.4.3 1.4.9 1.8 1.2h-10.1l.1 1.3c-.4-.1-1.1-.3-1.5-.5-3.9 3-8.2 5.6-11.6 9.2-.8-.1-2.4-.2-3.2-.2.8-.6 2.4-1.7 3.2-2.3 4.2-5.6 9.3-11.1 10.9-18.2.1-3.2.3-6.3.3-9.5l.8-.1c-.1-2.8-.1-5.7.6-8.5.9-4.1 3.3-7.8 5.9-11 5.4-6.7 13.5-10.5 21.2-13.9 1-.3 2-.7 3-1 1.5-.4 3-.6 4.5-.8v-.7c.6 0 1.9-.1 2.5-.2l3-1.2c1-.3 2.1-.6 3.1-.9 1-.4 2-.7 3-1 2.4-.9 4.7-2 7-2.9 1.4-.7 2.7-1.4 4.1-2 7.4-4.8 11.4-12.8 16-19.9 4.6-7.6 12.5-12.8 20.8-15.3 1.2-.5 2.5-.8 3.8-1.1z"/><path class="st0" d="M303.3 81.5c.5-.1 1.4-.3 1.9-.4-.2 1-.6 2.9-.9 3.8-.3 1-.7 1.9-1.1 2.9-.5 1.5-1 3.1-1.5 4.7h-.6c-.3 1.2-.6 2.3-1 3.5-.1 2 0 4.1-.8 5.9-3.1 5.5-9 8.4-14.4 11.4-5.2 2.9-11.1 3.8-16.7 5.6-1 .3-2.1.6-3.1.9-1.6 1-3.5 1.6-5.4 1.9l-.1 1c-.5-.1-1.3-.3-1.8-.3l-.2 1.2c-.4 0-1-.1-1.4-.1-5.1 3.4-10.3 6.5-14.8 10.6l-1.8 2.1c-1.8 2-3.3 4.2-4.7 6.4-.4 1.3-.9 2.5-1.3 3.7h-.6c-.3 1.6-.6 3.1-.9 4.6 0 .7 0 2-.1 2.6-6.7.9-13.5 1.4-20.2 2v.7c-3.5 0-6.7 1.6-10 2.4l-.1 1c-.4-.1-1.1-.3-1.4-.3-.3.4-.8 1.3-1 1.8l-2.4 1.1c1 .1 3.1.2 4.1.2l-.1.9c4.5 0 9.1-.4 13.5.6 1.6.5 3.1 1.1 4.6 1.8.2 3.8-1.7 7.1-3.8 10.1-4.7 6.9-10.6 12.8-16 19.1-.6.6-1.2 1.3-1.8 2-4.9 5.3-10.1 10.5-13.3 17 0 .6 0 1.9-.1 2.5l-1 .1v4h-.8c-.2 6.9-2 13.6-2.3 20.5l-.8 1.3c-.3-10.8-1-21.8 1.4-32.4.5-1 1-2 1.5-2.9 0-.2 0-.7.1-1 5.7-9.6 13.4-17.7 20-26.5 1.9-2.7 4-5.4 4.2-8.8-.8-.6-1.6-1.3-2.4-1.9-1.4-.3-2.9-.5-4.3-1-3-.3-6.1 0-9-1-1.3-.1-2.5-.2-3.8-.3.1-.8.2-1.7.3-2.5 6.6-4.9 13-10.4 21-12.8l.1-.5c6-1.8 12.4-3.7 16.9-8.2 4.1-3.4 5.6-8.8 9.4-12.5 5.2-5.3 12-8.6 18.1-12.6.3 0 1 .1 1.3.1l.3-1.2c.3 0 1 .1 1.4.1 1.5-1.4 3.5-1.9 5.5-2.2l-.1-.6c1.6-.4 3.1-.9 4.7-1.4.9-.4 1.9-.8 2.8-1.1 1-.3 2-.6 3.1-.9 2-.8 4-1.4 6.1-1.9 1.6-1.1 3.5-1.6 5.4-2v-1c.4.1 1.1.2 1.4.3 5.1-3.6 10.4-7.2 14-12.5 1.4-2.3 2.7-4.6 3.9-7 .4-1.6.7-3.1.9-4.6z"/><path class="st0" d="M339.5 86c1.3-.3 2.6-.6 4-1 2.8-.7 5.6-.6 8.5-.6v.8c2 .2 4 .7 6 1.3v.6c5.8 1.8 13 4.5 18.4.3-.9 7.3-1.4 14.6-2.1 21.9 1.4 1.5 3.7 1.7 5.3 3 .3 0 1-.1 1.4-.1l.3 1.2c.3 0 1-.1 1.3-.1.7.3 2.1 1 2.8 1.4 0 2.1-.1 4.2-.7 6.2-.4 1.3-.8 2.6-1.1 3.9l-.9 3c-.8 2.5-2.3 4.7-4.2 6.6-2.7 1.3-5.8 1.2-8.6.6-1.8-1.8-4.4-3.3-4.6-6-.2-5.2.3-10.4-.1-15.6l-.7-.1c-.5-2.1-1.5-4-2.4-5.9-1.8-2.1-3.8-4-5.8-5.8-1.9-1-3.8-1.9-5.9-2.4v-.7c-5-.1-10.4-.8-15.1 1.6-8.3 3.9-12.2 12.7-18.4 18.8-4.1 5.5-9.1 10.5-15.1 13.8-1.1.3-2.3.6-3.5.8l.1.8c-.6.1-1.9.1-2.5.2-2.9 1-5.9 1.6-9 2.1-1.8.6-3.7.7-5.6.8l.2.9c-.7 0-2 .1-2.6.1-8.3 2.3-16.2 6.7-21.7 13.4-1.7 2.2-3.3 4.5-3.9 7.3l-.5.1c-1.2 5.5-1.6 11.1-1.2 16.8-.6-.6-2-1.7-2.6-2.3-.3-1-.5-2.1-.9-3.1-.7-1.7-.8-3.6-.8-5.4l-.8-.1c-.1-2.8-.2-5.7.4-8.5.4-.9.8-1.9 1.2-2.9 3.8-6.9 9.9-12.5 17-15.9 1.6-1 3.5-1.7 5.4-1.9v-.7c1.7-.4 3.3-.9 5-1.3v-.8c.6-.1 1.9-.2 2.5-.2 2.6-1 5.3-1.7 8-2.1 2.3-.8 4.6-1.5 7-1.9l3.9-1.5c6.6-2.4 11.4-7.9 15.3-13.6 1.3-2 2.6-3.9 4-5.8 1.5-3.2 3-6.4 4.9-9.3 3.8-5.1 9.2-8.8 14.8-11.6.3 0 .8-.1 1-.1.5-.1 1.6-.5 2.6-1zm12.6 6.8c-2.8 1.4.4 5.4 2.3 3.3 2.1-1.5-.3-4.8-2.3-3.3zm5.8 5.2c.4.6 1.1 1.8 1.4 2.4 2 1.1 4.2-1.3 2.8-3.1-1.3-1.6-3.1-.1-4.2.7zm6.7 8c1.1 1.2 2.6-.5 3.7-.9-.6-1.1-1-3.1-2.7-2.7-1.8-.1-2.5 2.6-1 3.6zm2.2 3.6c.4 1.1.2 3.1 1.8 3.2 2 1 3.6-2.6 1.7-3.6-1.1-.9-2.4.3-3.5.4zm2.3 7.2c-2.3 1.9 1.5 5.3 3 2.8 1.7-1.8-1.1-4.5-3-2.8zm-1.4 8.3c-.3 1.5.9 2.5 1.8 3.6.9-.9 2.2-1.4 2.4-2.7-.3-2.1-3.1-2.5-4.2-.9zM164.1 92.8c4.5-1.7 8.8-4 12.2-7.4-.2 1.9-.3 3.8-1.1 5.6-.2 1.4-.4 2.8-.7 4.2-.6.1-1.9.4-2.6.5l-.2 1c-.3 0-1-.1-1.4-.2-1.6 1.3-3.5 1.9-5.4 2.3l-.1.6c-1.5.4-3.1 1-4.5 1.6-1.1.3-2.3.6-3.4.8l-.1.6c-2 .5-4 1-6 1.3l-.1.7c-.6.1-1.8.2-2.4.3-1.3.4-2.7.8-4 1.2-1.3.3-2.7.7-4 1-3.3.9-6.6 1.5-10 2-7.4 1-14.9 2-22.5 1.5v-.7c-2.5-.2-7.5-.5-9.9-.7 5.1-.6 10.2-1.5 15.4-1.8 1.9-.8 4-.8 6-1 1.6-.8 3.3-.9 5-1 3-.9 6-1.5 9-2.1 1.3-.4 2.6-.7 3.9-1 1.5-.5 3-.7 4.5-.8v-.8c.8 0 2.2 0 3 .1v-1c.6 0 1.9-.1 2.5-.1 2-.8 4-1.6 6.1-2.2 1.1-.3 2.3-.6 3.4-.9l-.1-.6c1.7-.4 3.4-.9 5.1-1.4l.1-1c.4.1 1.4.3 1.8.4l.5-1z"/><path class="st0" d="M379 90.8c1.6 3.6 4.1 6.6 5.5 10.2.5 2.3.6 4.6.7 7 .2.7.7 2 1 2.6h-2.6c.2-1.7.3-3.3.5-5-1.2-2.3-2.9-4.1-5-5.7 1.4 3 .9 6.2.6 9.4-1.7-1.8 0-4.3 0-6.5l-1.9 6.2c-.5-6 1.1-12 1.2-18.2zM337 104.6c3.5-1.3 7.3-1.4 11-1.2l-.1.8c1.1.3 2.3.5 3.4.8 4.7 3 8.9 8 8.8 13.9.3 3.7-1.2 7.1-2.7 10.3-1.3-2.9-2.8-5.8-4.3-8.6-1.5-3.1-3.7-5.7-5.6-8.5-3.3.7-3 4.8-5.4 6.5-1.3 1.5-3.3 1.8-5.2 2.1l-.2.9c-.3-.1-1-.2-1.3-.3-2.8 2-5.6 4-8.1 6.4-.7.6-1.4 1.3-2.1 1.9-4.9 5.1-9.3 11.2-15.9 14.1-1.6.7-3.3 1.4-5 1.9-1 .4-2 .8-2.9 1.1-1.2.3-2.3.6-3.5.8v.6c-1.7.4-3.4.9-5 1.4v.6c-2.2.7-4 2.1-5.8 3.5-1.6 2.7-1.8 6.7 1 8.7 5.3 4.6 8.6 10.9 12.1 16.9.5 1 .8 2.1 1.1 3.1h.5c.8 3.7 3.9 6.7 3.3 10.7-.8.1-2.3.3-3.1.3v2.6c4.5 2.9 9.3 5.4 14.3 7.4-.1.9-.1 1.8-.2 2.6-2.3 2.6-4.1 6.7-8.1 6.5l.1.7H304v-.7c-2.4-.3-4.4-1.7-5.6-3.8-.2-1-.5-2.1-.7-3.1-1-2.4-1.6-4.9-2-7.5l-.6.1c-.6-2.8-1.9-5.3-2.5-8l-1-.1c.1-.4.4-1.3.6-1.8h-1c-3.8-8.6-10.3-15.7-17.3-21.8-4.5-3.4-9.2-6.6-14.4-8.6 2-4.6 5.8-8.4 10.5-10.1l.1-.9c.3 0 1 .1 1.3.1 1.2-.5 2.4-.9 3.6-1.2l-.1-.6c1.9-.4 3.8-.9 5.6-1.4 2.9-1 6-1.5 9-2 1.3-.4 2.6-.8 4-1.2 1.5-.3 3-.6 4.5-.8v-.6c1.5-.4 3.1-.8 4.6-1.3 15.3-6 20.6-23.2 32.8-33 .4.1 1.1.2 1.4.3l.2-.5zM218.5 118.2c1.6-1.5 3.8-1.9 5.8-2.3-4.9 7.3-11.5 13.4-19.1 17.9-5.9 3.4-11.9 6.7-18.3 9l-.1.5c-2.2.8-4.3 1.7-6.5 2.5-1.6.9-3.3 1.5-5 2-2.7 1.3-5.4 2.4-8.3 3v.6c-1.7.4-3.4.9-5 1.4v.6c-1.7.5-3.3 1-5 1.4l-.1.9c-.4-.1-1.1-.2-1.4-.2-1.5 1.3-3.5 1.9-5.4 2.3l-.1 1c-.5-.1-1.4-.3-1.9-.3l-.1 1.3c-.4-.1-1.1-.2-1.4-.3-1.6 1.1-3.2 2.1-4.8 3.2.1-.7.2-2.1.3-2.8 3.2-2 6.3-4.1 9.7-5.7 3.8-2.4 8.1-4 11.9-6.5 1.6-.7 3.3-1.3 5-1.9-5.6-1.4-10.9 1.4-16.4.8v.8l-7.5.3c-5.1 1.6-10.5.3-15.7 1.8v-1.9c2.1-.2 4.1-.3 6.2-.3l-.1-.8c1.7 0 3.4-.1 5.1-.1l-.1-.8c2.6-.4 5.1-.9 7.6-1.5 1.3-.4 2.7-.7 4-1 2.3-.7 4.6-1.4 7-1.9 2.3-.8 4.6-1.5 7-2 2-.6 4.1-1.4 6.1-2.1 1-.3 1.9-.6 2.9-.9 2.1-.9 4.3-1.6 6.5-2v-.6c2.6-.7 5.1-1.6 7.6-2.5 1.7-.7 3.3-1.5 5-2.2 1.1-.3 2.3-.6 3.5-.8l-.1-1.1c.4.1 1.1.3 1.5.4 2.5-1.6 5.4-2.5 8.1-3.8 3-1.2 5.8-2.6 8.6-4 .8-.4 1.9-.9 3-1.4z"/><path class="st0" d="M348.8 118.3c1.3 3.5 3.5 6.5 5.5 9.6-2.8 5.7-6.7 12.8-14 12.9 4.1-2.6 7.5-6.8 8.3-11.7.4-3.5.2-7.2.2-10.8zM366.1 142.5c-.1-2.1-.2-4.1-.5-6.2 1.2 1.3 2.6 2.1 4.3 2.5l.1.6c.9-.1 2.6-.3 3.5-.3-.4.9-.8 1.9-1.1 2.8-2.3 6.7-7 12.3-12.6 16.5 3.1-3.7 6.7-7.8 6.3-12.9l.7.1v-3.1h-.7zM304.6 150.2c2.4-1.6 5.1-2 7.9-1.6 3 7.8.9 16.2 1.7 24.3H313c-.6-7.6 1.2-15.4-1.1-22.8-.5.1-1.5.2-2 .2.1.7.3 2 .4 2.6 2.3 8.4-1.2 17.8 2.4 26.1.8 2.1 2 4.1 3.4 5.9-1.1 1.3-2.1 2.6-2.7 4.2-2.5-2.3-5-4.8-5.9-8.2-1-2.7-.8-5.6-.7-8.4l-.7-.1c.1-3.1-.5-6-1.4-8.9-1.5 0-3-.1-4.5-.1-.4 1.6-.9 3.3-1.5 4.9-.4-.3-1.1-.9-1.5-1.1-1.5-3.8-4.5-6.8-7.4-9.7v-1.7c2.8-1.7 5.7-3.4 9-3.6v-.8c.6-.1 1.9-.2 2.5-.2 1.2-.3 2.2-.6 3.3-1zM217.1 157.8c5-.1 10.1-.1 15.1-.2 0 2.8-.1 5.6-.7 8.3-.4 1.3-.9 2.4-2.3 2.8-5.1 10.1-13.8 17.6-20.3 26.6 0-.9-.1-2.6-.1-3.5 1.7-1.7 3.1-3.5 4.4-5.5 3.5-4.9 7.1-9.7 9.7-15.1 1.3-2.5 1-5.3 1-8l-1.2.2c.1-.4.1-1.3.2-1.7-2-1-4-2.3-6.3-2.4.1-.2.3-1 .5-1.5zM257 174.1c-.5-4.1-.5-8.3 1-12.2 2.6 1.7 5.3 3.3 8.1 4.8 10.3 6.9 19.2 16.8 23.1 28.7.2 0 .6.1.7.1.4 1.6.9 3.3 1.3 4.9l.7.1c.1.6.2 1.8.3 2.4.5 1.5.8 3 1 4.5h.6c.4 1.7.9 3.4 1.3 5.1l.5-.1c3.8 5.4 11.2 6.4 17 3.8 4-2.4 5.4-7.3 9.4-9.6 2.7-.8 5.6-.4 8.2.7 3.2 2.9 3.7 7.5 2.3 11.5-2.7 4.4-6.5 8-10.4 11.4-1.6.9-3.2 1.7-4.7 2.6-3.7 1.2-7.5 1.7-11.4 1.6v-.8c-1.9-.1-3.8-.1-5.5-.8-5.5-2.4-11.2-6.4-12.9-12.5h-.6c-.4-1.7-.9-3.3-1.2-5h-.6c-.6-2.6-1.6-5.1-2.5-7.6-3.3-7.7-7.9-14.7-12.2-21.9-3.2-4.2-6.8-8.3-11.6-10.7v-.5c-.5 0-1.4-.3-1.9-.5z"/><path class="st0" d="M319.2 174.3c.7 6.4 1.9 13.3 0 19.6-.1.5-.3 1.5-.5 1.9-.8 1.1-.8 4.1-2.8 3.5-3-1.5-5.9-3.2-9-4.4.7-.2 2.1-.5 2.8-.6 3.2-2.1 6.2-4.7 8-8.2 1-3.8 1.3-7.8 1.5-11.8zM339.9 180.5c1.9 5.6 1 11.7 1 17.5-1.9-.5-3.7-1.1-5.4-1.7.5-1.5 1.1-3 2.2-4.2.3-1 .7-2 1-3.1.1-2 .4-4.1 1-6 0-.6.2-1.9.2-2.5z"/><path class="st0" d="M321.8 192.9c3.4 2.1 6.2 5.1 10.1 6V197c3 .5 5.6 1.9 8.3 3.3 1.5.5 3.1.9 4.6 1.4v.5c1.5.2 3 .5 4.5 1 3.7.5 7.4.4 11.1.1 2-1.1 4-2.1 6-3.2.5-.9 1-1.8 1.5-2.6 0 .8.1 2.2.1 3-1.9 2-4.1 3.6-6.8 4.5-2.2 1.1-5.5-.2-7 2l-.8-1.1c-3.4-.5-6.9.2-10.1-1-1.3-.3-2.6-.6-3.9-1-6.4-1.9-12-5.4-17.8-8.7.3-.6.2-1.8.2-2.3zM324.3 202.1c2-.4 4.1-1.1 6 0 1.6 1.3 3.6 2.1 5.6 2.6v.7c.7.1 2.1.2 2.9.2-1.4 1.3-2.3 2.9-3.3 4.6-.3-1.1-.5-2.2-.8-3.3-2.8-2.8-6.2-5-10.4-4.8z"/><g><path class="st1" d="M352.1 92.8c1.9-1.5 4.3 1.8 2.3 3.3-1.9 2.1-5-2-2.3-3.3zM357.9 98c1.2-.8 2.9-2.3 4.1-.7 1.4 1.8-.7 4.3-2.8 3.1-.3-.6-1-1.8-1.3-2.4zM364.6 106c-1.5-1-.8-3.7 1-3.7 1.7-.3 2.1 1.6 2.7 2.7-1.1.5-2.6 2.2-3.7 1zM366.8 109.6c1.1-.1 2.4-1.3 3.5-.4 1.9 1 .3 4.6-1.7 3.6-1.6-.1-1.4-2.1-1.8-3.2zM369.1 116.8c1.9-1.6 4.7 1 3 2.8-1.5 2.4-5.3-.9-3-2.8zM367.7 125.1c1.1-1.7 3.9-1.2 4.2.8-.2 1.3-1.6 1.9-2.4 2.7-.9-.9-2.1-1.9-1.8-3.5z"/></g></svg>