<svg id="Layer_1" xmlns="http://www.w3.org/2000/svg" viewBox="0 0 250.6 335.7"><style>.st0{fill:#000102}.st1{fill:#fff}.st13{fill:#292a2b}</style><path d="M78 14.3C81.5 5.5 90.8-.4 100.2 0c9 .2 17.4 6.2 20.9 14.4 32.4-.1 64.7 0 97.1 0 3.9-.3 7.8 2.9 7.9 6.9.1 5.8 0 11.6.1 17.4 5.7.1 11.4 0 17.1.1 4 0 7.5 3.7 7.2 7.7v280.9c.5 4.6-3.6 8.8-8.2 8.2h-203c-2.6 0-5.3.1-7.9 0-3.7-.1-7-3.4-7-7.1-.1-5.7 0-11.5 0-17.2-5.7-.1-11.4.1-17.1 0-4.1.1-7.5-3.8-7.2-7.9v-281c-.4-4.1 3.1-8.1 7.2-8 23.5-.2 47.1.3 70.7-.1zm12.6.1c5.9 0 11.9.1 17.8-.1-4.5-4.9-13.4-5.1-17.8.1zM14.9 29.3c-.1 89.1-.1 178.1 0 267.2h9.5V46.4c-.2-3.8 3-7.5 6.9-7.6 15-.1 29.9.1 44.9-.1-.1-3.1-.1-6.2 0-9.2-20.5-.5-40.9-.2-61.3-.2zm71.9 0c-.1 11.4-.1 22.7 0 34.1-.1 7.8 8.2 14 15.6 12 6.3-1.3 10.6-7.7 10-14-.4-4.9.9-10.2-1.2-14.8-1.1-2.5-4.8-2.8-6.3-.6-2.5 2.7-.7 7.1-3.7 9.5-2.6 2.4-7.4 1.1-8.3-2.4-1.6-8.9 5.1-18.9 14.5-19.2 5.3-.5 10 2.8 12.9 7 5.2.1 10.4-.3 15.5.2 4.8 1 5.2 8.4.6 10-4.4.9-9 .2-13.4.4-.4 6.9 1.1 14.2-2 20.7-4.2 10.1-16 16.3-26.7 13.5-8.4-1.9-15.4-8.8-17.4-17.2-1.2-4.9-.6-9.9-.8-14.9H39.2c-.1 89.1-.1 178.1 0 267.2 65.5 0 131 .1 196.5 0 0-89.1.1-178.1-.1-267.2h-55.3c-4 .4-7.9-3.1-7.9-7.2-.2-3.9 3-7.5 6.9-7.6 10.7-.1 21.4.1 32.1-.1v-9.4c-41.6-.1-83.1-.1-124.6 0z"/><path d="M148.7 39c3.4-.7 7.4-.5 9.8 2.4 3.1 3.5 1.8 9.9-2.7 11.6-3.8 1.3-8.9 1-11.3-2.7-2.9-4-.5-10.2 4.2-11.3z"/><path d="M191.8 128.6c.4 1 .8 2 1.3 3.1.8 0 2.4.1 3.2.1-1.4.7-3.1 1-4.1 2.2-.3-1.3-1.2-1.7-2.6-1.3 1.5-1 3.5-1.9 2.2-4.1z"/><path d="M211.6 144.9c1.3-.3 2.2-1.2 2.9-2.3-.2 1.3 0 2.5 1.4 3.1h-1.4l-.1 1.5c-.2-.3-.5-1-.7-1.3-.7-.4-1.4-.7-2.1-1z"/><path d="M192.2 96.4c.2-1.9 1.1-4.1 3.2-4.6 3.2-.6 5.8 3.8 3.5 6.2-1.3 2-4.1.7-5.8 2-2.4 1.5-4.7 3-7.1 4.5l-.5.9c1 8.6 1.2 17.3 2.2 25.9 2.6.3 2-3.9 4.4-3.5 1.6 1 2.7 2.6 4.5 3.2 0 .4 0 1.3-.1 1.7-1.6.5-2.7 2.1-3.3 3.6 1.3 1.8 3.5 2.8 5.4 3.9.2 2.1-2.4 2.9-2.9 4.9-1.6-.9-3.1-1.9-4.5-3l-2 .7c-.4.1-1.1.2-1.5.3-2.4-.5-4.4-2.9-2.8-5.2-1.8 1.4-3.9.7-5.7-.3 1.4-.6 2.8-.6 4.2.2-.1-.5-.3-1.5-.4-2.1-3.8-2.1-6.6-6.2-11-7-.3 2.6 2.7 3.4 4.5 4.4-.3.7-.6 1.4-.8 2.1-.7.1-2 .2-2.6.3-.4 1.7-2 2.6-2.6 4.1 1.3 1.5 4 3.8 5.3 1-.1 2.3 2.4 3 4.1 4 3.3 1.6 6.3 4 10 4.9-.8-2.7-3.7-3.6-5.6-5.4-2.6-1.8-5-5.6-8.5-3.4.4-.6 1.4-1.7 1.8-2.2-1.6-1.1-.9-2.4-.1-3.7.9.8 3.5 1 1.6 2.8-.2-.1-.7-.3-.9-.4 1.1 1.6 3 2 4.8 2.2.2 3.6 4.7 3.6 5.6 6.7 1.4-.1 3-.9 3.8 1.1-.2-.5-.4-1-.5-1.5.6.1 1.8.2 2.4.3-.3 1.2-.8 2.4-1.7 3.2-1.5-1.1-2.2-.7-2.3 1.4 2.2-.1 4.4.7 6.5.1 2.3-1.7 4.5-3.4 6.1-5.8.5 0 1.6-.1 2.1-.1.3-.5 1-1.4 1.3-1.9 1.2.7 2.3 1.4 3.5 2.1.8-1.1 1.6-2.3 2.4-3.4 2.8-.3 3.6 2.2 5.7 3.4-.7 1.4-1.8 2.6-2.9 3.8 2.9 2.9 6.5 5.1 9.7 7.6 0 3.3-4.1 2.2-5.2 4.8-2.3.5-2.1-2.7-4.4-2.3-2.7.2-5.5.3-8.2.8-1.1.9-2.2 1.9-3.4 2.6-2.6-1.9-6.1-2.7-8.2-5.2l-.1-.5c3.8-.6 6.1 3.3 9.7 3.8-3.2-3.3-8.1-4.1-12.4-5.3l1-2.3c-.5.1-1.5.3-1.9.4-2.3-2.1-5.4-2.6-8.2-3.6-.3-.6-.8-1.8-1.1-2.4-3.6-2.1-7.4-3.9-11-5.9-2-1.7-.7-4 1.2-5-2.1-4.2-6.6-6.3-10.2-9-3.4-2.5-7.1 5-2.9 6 3 2.4 7.3 3.1 9.7 6.2-2.9-.7-5.6-2.2-8.1-3.8-2.6-1.7-5.6-2.8-8.1-4.8.6.2 1.8.5 2.3.7 1.7-1.9 2.9-4.2 4.7-6.1-.3-1.2-1.4-4.2 1-3.2l.4.4c-1.1 1.4 2.1 2.7 2.6 4.1 4.2 1.6 6.9 5.6 10.8 7.6-1.1-1.6-2.6-2.9-4.2-4 .3-1.6-1.1-3-2.7-3-.2 0-.5-.1-.6-.2-2.1-.2-3.6-1.8-4.6-3.6l3.2.8-.3-1.7c-3.6-2.6-6.9-6.2-11.6-6.8-1.8.9-1.9 3.1-3 4.5-2.1 1.7-3.3 4.1-5.1 6.1 2.2 1.3 4.4 2.4 6.5 3.9-3.6-.1-5.8-3.6-9.1-4.1-1.5 1.6-1.9 3.9-3.7 5.3.6-2.1 3.2-3.4 2.2-5.9 2.1-.6 3.9-2.1 6.1-2.5h-2.5c.3-.8.9-1.4 1.7-1.8.7-3.3 4.6-4.6 5-8.1-1.6-.5-1.2-1.9-1.1-3.1 1.3-1.2 2.9-2.3 3.1-4.2.4 0 1.2-.1 1.6-.2.6.2 1.8.7 2.4.9v.3l-.4 2.4c-1 .6-2 1.2-3 1.7.1.5.3 1.5.3 2-1 1.1-2.1 2-3.2 3 3.4-1.7 4.8-5.6 7.2-8.4-.2-.3-.6-.8-.8-1.1l-.1-1c2.7-1.3 2.1 1.2 2 2.9 2.8-.4 1.8 2.4.9 3.7 4 1.5 6.3 5.4 10.3 6.9.7-3.2-1.1-5.6-2.6-8.1.5-.1 1.5-.2 2-.3.3-4.2 0-9.5 3.6-12.4-1 3.5-3.2 6.9-2.9 10.7.9-.3 1.8-.7 2.7-1 .1-1.3.2-2.5.4-3.8 1.2-1.1 2.3-2.3 2.5-4 .3.1.8.3 1.1.4.5 3.7 0 7.5.3 11.2 1-.1 1.9-.3 2.9-.4-.9 1.6-2.8 1.6-4.5 1.6-.4-1.2.3-3.7-1.6-3.8-2.2-.3-4.6 1.4-5 3.6 1.7-.6 3.3-1.2 5.1-1.7-1.2 1.2-2.4 2.3-3.4 3.7 5.6 4.5 10.2 10 14.6 15.6 1.2-1.7-.1-3.7 0-5.5-.1-3.8.3-7.6-.7-11.4-.7-2.7.6-5.9-1.5-8.1-.8 1.9-1.8 3.8-3.9 4.3.7-1.3 1.6-2.5 2.2-3.8-.5-1.4-1.3-2.7-2-4 1.5.4 2.5 1.7 3.4 2.8 2.3-2.6 5.4-4 8.3-5.8 2.1-1.2 5.3-.8 6.5-3.2 0-2-1.8-2.9-3.4-3.7-2 1.9-2.2 5.1-4.8 6.4-2 1.3-4.1 2.6-6.4 3.2-1.4-.1-2.3-1.6-3.3-2.4-1.4-1.8-3.7-1.4-5.7-1.7 3.4-1.4 7.2.2 9 3.2 3.1-.6 5.5-2.6 8.1-4.3zm-16.7 8.4c-.7 1.1-.7 2.3.1 3.4h.5c.7-1.1.7-2.3-.1-3.4h-.5zm-23.8 7c1-.9 2-1.7 3.3-2.1-.3-1-.4-2.1-.2-3.2-.7 2-2.1 3.5-3.1 5.3zm8.3-1.7c-1.1 1.7-2.7 3.1-3.4 5 1-.9 2-1.9 3.3-2.4-.4-1.3-.1-2.3 1-3-.3.1-.7.3-.9.4zm-1.6 5.9c2.3 1.1 4 3 6.1 4.2 4.3 4.5 10 7.3 14.9 11 4.9 4.6 10.1 8.8 15.8 12.3.8-1 1.7-1.9 2.7-2.7-1.2-.6-2.3-1.2-3.4-1.8-4.9-4.4-10.2-8.4-15.5-12.4-2.3-1.7-5-2.8-6.9-4.9-2.4-2.8-6.4-3.7-8.3-6.9-1.9-1.4-4.4-1-5.4 1.2zm14.3 1.4c.1 1.6.6 3.5 2 4.5 1.7.1 3 1.4 4.4 2.3-2.7-1.9-5.2-3.8-6.4-6.8zm-24 1.5c-1.4 1.2 1.4 1.9 2.1 1 1.3-1.2-1.4-1.9-2.1-1zm43.1 9.7c1.3 2.2-.7 3.1-2.3 4.1 1.4-.4 2.3.1 2.6 1.3 1.1-1.2 2.7-1.5 4.1-2.2-.8 0-2.4-.1-3.2-.1-.4-1.1-.8-2.1-1.2-3.1zm19.8 16.3c.7.3 1.4.7 2.1 1 .2.3.5.9.7 1.3l.1-1.5h1.4c-1.4-.5-1.6-1.7-1.4-3.1-.7 1.1-1.6 2-2.9 2.3zm-4.8-.4c1.5 3.1 5.1 3.7 6.9 6.5 3 2.4 7 3.8 9.3 7-.3-3.7-5.4-3.7-6.4-7-3.6-1.7-6.1-5-9.8-6.5zm-3 1.3c-1.3 3 2.7 3.2 4 5 2.4 1.6 4.4 3.7 6.9 5.1 1.4 1.3 3.6 2 4.1 4 .8.2 1.4-.7 2.1-1-.4 0-1.1-.1-1.5-.2-1.2-3.8-5.7-4.6-8.8-6.4.9-2.6-2.4-2.4-3.4-3.9-1.1-.7-1.8-3.1-3.4-2.6zm-2.2 3c-2.3 1.3-4.5 2.8-7.2 2.8 2.9 2.5 6.5 4 9.9 5.7 3 1.7 6.6 1.2 9.8.9-.2-.3-.6-.8-.7-1-4.1-2.5-7.6-6-11.8-8.4z"/><path d="M119.5 142.6c.6-.2 1.8-.6 2.4-.7 2.8 2.1 5.5 4.2 8.2 6.5 0 .8.1 2.5.1 3.3-1.9 0-3.8.1-5.6.1-1.5-2.2 1.1-3.1 2.5-3.8-2 .2-3.6-1.1-4.5-2.7-1-1.1-3.1-1.4-3.1-2.7z"/><path d="M143.1 146.3h1.2c5 3.7 10.4 7 14.6 11.5-1 .5-2 .5-3 .1-.1-.1-.4-.3-.6-.4-1.7-2.9-5.1-3.3-8.1-3.9l1.1-1.5c-1.3-1-2.6-1.9-4-2.9l-2.4-2 1.2-.9z"/><path d="M105 148.2h5.7v3.4c-1.9 0-3.8 0-5.6.1 0-.9 0-2.6-.1-3.5z"/><path d="M127.2 219.2c2.3-.1 4.4 1.1 6.4 2 .3-.5 1-1.4 1.3-1.9-.6 2.4.8 4.6 1.1 6.9 1.1 4 .2 8.3 1.9 12.2-.2 4.1-2.9 8-6.3 10.3-3.2 1.5-5.8-2.4-5-5.3 1-.6 1.8-1.5 2.4-2.5-2.6-.3-4.2-3-4.5-5.4-.4-2.8-1.2-5.5-1.6-8.2.8-3 3.7-5 4.3-8.1zm-.7 4.4c.7 3.5 1.6 6.9 2.3 10.4.2 1.4 1.3 2.4 2.6 2.8 2-3 .7-6.6 0-9.8-.2-2.3-2.6-3.7-4.9-3.4zm2.5 16.3c1.1 2.6 2.5 5.2 1.1 8l1.1.2c4.2-2.4 3.2-8.2 1.3-11.8-1.2 1.1-2.4 2.3-3.5 3.6z"/><path d="M102.4 226.3c1.8.6 3.3 1.9 5 2.7.4-.4 1.2-1.3 1.6-1.7-.2.8-.6 2.2-.8 3 2.6 4.6 3.6 9.9 5.9 14.6.5-.4 1.4-1.1 1.9-1.5-.7 2.6-1.2 5.2-2.3 7.7-2.6 1.1-3.9-4.1-6.6-1.8.3-.8.8-2.3 1-3-1.4-5.1-3.3-10.2-6-14.7-.5.2-1.5.5-2.1.7.8-2 1.7-4 2.4-6z"/><path d="M94.1 230c1.8 1 3.6 2.3 4.4 4.3 2 4.7 3.8 9.5 6 14.1.5 1.8 2.4 1.5 3.9 1.2-1.1 1.9-2 3.9-2.9 5.9-1.8-.4-3.2-1.5-4.6-2.6-.6.7-1.3 1.2-2.2 1.4.3-.9.5-1.8.8-2.6-2.4-4.7-4.4-9.5-6.4-14.3l-.8-.4c-.4.3-1.2 1-1.6 1.3 1.3-2.9 2-5.8 3.4-8.3z"/><path d="M71.1 242.3c1.4-.4 3-.8 4.3.2 1.2 1.5-.1 4-2 3.8-.4-1.6-1.2-2.9-2.3-4z"/><path d="M70 244.1c.4.1 1.3.4 1.7.6.8 4.3 3.7 7.7 6 11.2 1.7 1.7 3.2 4.6 6.1 4.2-.6 1.1-1 2.2-1.2 3.4-3.5.8-4.6-2.6-6.7-4.5-2.6-2.9-4.7-6.1-6.4-9.5-1.2-1.8.4-3.7.5-5.4z"/><path d="M76.4 252.2c.5-1.8.5-3.9 1.7-5.4 2.1-.4 4.8-.1 6 1.9 2.6 4 7.2 7.7 6 13-.1 2.1-1.8 3.5-3.5 4.5 1.3-1.7 2.4-3.8.7-5.7-2.5-3.1-4.9-6.4-7.8-9.1-.9.2-2.4.6-3.1.8z"/><path class="st0" d="M195.5 92.5c1.5.8 3.4 1.7 3.4 3.7-1.3 2.5-4.4 2.1-6.5 3.2-2.9 1.7-6 3.2-8.3 5.8-1-1.1-1.9-2.4-3.4-2.8.7 1.3 1.5 2.6 2 4-.5 1.4-1.4 2.6-2.2 3.8 2.1-.6 3.1-2.5 3.9-4.3 2 2.3.7 5.4 1.5 8.1 1 3.7.6 7.6.7 11.4-.1 1.9 1.2 3.8 0 5.5-4.4-5.6-9-11.2-14.6-15.6 1-1.4 2.2-2.6 3.4-3.7-1.7.5-3.4 1.1-5.1 1.7.4-2.3 2.8-4 5-3.6 1.9.1 1.2 2.5 1.6 3.8 1.7.1 3.5.1 4.5-1.6-1 .1-1.9.2-2.9.4-.4-3.7.2-7.5-.3-11.2-.3-.1-.9-.3-1.1-.4-.3 1.7-1.4 2.9-2.5 4-.1 1.3-.3 2.5-.4 3.8-.9.3-1.8.7-2.7 1-.3-3.8 1.9-7.1 2.9-10.7l1.1-.5c1.9.3 4.3 0 5.7 1.7 1.1.8 1.9 2.3 3.3 2.4 2.4-.5 4.4-1.9 6.4-3.2 2.4-1.6 2.6-4.8 4.6-6.7z"/><path class="st0" d="M158.4 116c1-2.2 3.5-2.6 5.3-1.2 1.9 3.2 6 4.1 8.3 6.9 1.9 2.1 4.7 3.2 6.9 4.9 5.3 3.9 10.6 7.9 15.5 12.4 1.1.7 2.3 1.2 3.4 1.8-1 .8-1.9 1.7-2.7 2.7-5.7-3.6-10.9-7.8-15.8-12.3-5-3.7-10.7-6.5-14.9-11-2-1.3-3.7-3.2-6-4.2z"/><path class="st0" d="M139.7 131.6c1.8-1.4 2.2-3.8 3.7-5.3 3.3.5 5.6 4 9.1 4.1l.6.4c2.4 2 5.4 3.1 8.1 4.8 2.5 1.6 5.1 3.1 8.1 3.8-2.4-3.1-6.7-3.8-9.7-6.2-4.3-1-.5-8.5 2.9-6 3.6 2.8 8.1 4.8 10.2 9-1.9 1-3.1 3.3-1.2 5 3.7 2 7.4 3.7 11 5.9.3.6.8 1.8 1.1 2.4-6.6-2.4-12.1-6.9-18.5-9.6-3.4-1.4-6.3-3.7-9.6-5.2 4 2.7 8.3 5 12.8 6.9-2.4 4.7-6.4 8.4-9 13-.7.1-2 .4-2.6.5-3.6-3.1-7.6-5.8-11.5-8.5 2.4-4.6 6.1-8.5 9.1-12.8-3.3-1.9-6.6-3.9-10.2-5.3l-.4.8-.5.9c-1.5 1.7-2.4 4.5-4.7 5.2-1.6-.5.5-2.3.9-3.1l.3-.7z"/><path class="st0" d="M127.5 145.1c2.5-3.5 4.7-8 9.5-8.5.3.6 1 1.9 1.3 2.5l.8.5c.1.4.4 1.3.6 1.7-2.2 2.7-4.4 5.5-6.5 8.2-.6-.2-1.8-.5-2.4-.7-1-1.2-2-2.4-3.2-3.3l-.1-.4z"/><path class="st0" d="M176.2 140.6c3.5-2.1 5.9 1.7 8.5 3.4 1.9 1.7 4.8 2.7 5.6 5.4-3.7-.8-6.7-3.3-10-4.9-1.7-1-4.2-1.6-4.1-3.9z"/><path class="st0" d="M111.1 148.5c1.2-1.6 1.9-4 4.1-4.6 2.5-1.2 4.9.7 7.2 1.4.2 1.2.8 2.1 1.7 2.9.4 2.3-.6 4.3-1.8 6.3-1.4.6-2.5 1.8-4 2.2-1.9-.3-3.6-1.2-5.2-2.1-.9-1.9-3-3.7-2-6.1z"/><path class="st0" d="M173.5 144.7c3.4 1.8 6.7 3.8 10.3 5.2 1.1 1.2 2.4 2.3 3.7 3.1-1.2 1.4-2.4 2.8-3.4 4.3h3c.8-1.1 1.5-2.2 2.3-3.3 2.1.6 4 1.6 6 2.3l.1.5c2.2 2.5 5.6 3.3 8.2 5.2l-.5.5c-1.4 1.2-2.6 2.5-3.7 4-2.4-1.5-5.1-3.1-8-2.1l-.6.4c-4.7 1.5-5.5 7.8-2.6 11.3 1.6 1.1 3.9 1.3 4.6 3.4-3.3 0-6.2 1.6-9.3 2.5-1.3-1.4-2.7-2.7-4.4-3.6-2.2-2-4.6-3.9-7.2-5.4 1.4-.5 2.9-.4 4.3.1 1.3-3.3 3.9-5.8 5.6-8.9l.3-.4c1.4-.3 1.9-1.1 1.7-2.5l.7-.8c.7-.6 2.3-2 .7-2.6-1.6-.3-2.6 1.1-3 2.4-.2.3-.6 1-.9 1.3-1.5 1.8-3.1 3.5-4.6 5.3 3.3 1.3-1 6.7-3.3 3.9v1.5c-1.1-.2-2.1-.3-3.1-.4 2.8 2.4 5.9 4.4 8.9 6.6 2 1.7 4 3.5 6 5.2-.7.8-2.2 2.5-2.9 3.3-14-10.6-28.3-20.9-41.9-32-.8-1.3 1-2.1 2-2.5 1.8-.4 3.1 1.6 4.9 1.6.9 1.7 2.5 2.5 4.3 2.7.1 2.2 2.7 2.6 3.9 4.1.1.1.4.2.5.2l.3.2c1.3.9 2.4 2.2 3.4 3.5 1.1.3 2.1.7 3.2 1 .3.4.8 1.3 1.1 1.8 1.9.9 3.3 2.6 5 3.8-1.5-1.8-3.7-3-4.6-5.2.5-.1 1.4-.4 1.8-.6.1.1.3.2.4.3-.1-.1-.3-.2-.4-.3-1.9-1.4-3.7-3.2-5.8-4.3-.1-.7-.3-2-.3-2.6 1.8.3 3.1 1.4 4 2.8 4.4 2.1 7.4 6.6 12.2 7.9-4-1.8-7.1-4.9-10.7-7.4-1.8-1.1-2-3.4-1.6-5.3 3.7-3.5 6.3-8 9.4-12z"/><path class="st0" d="M201.6 148.8c4.2 2.4 7.7 5.8 11.8 8.5.2.3.6.8.7 1-3.3.2-6.9.7-9.8-.9-3.4-1.8-7-3.2-9.9-5.7 2.8-.1 4.9-1.6 7.2-2.9z"/><path class="st0" d="M130.2 149.3c4.2 1 6.9 5.3 11.1 6.9 7.6 6.3 15.8 12 23.6 18.1-.2 1.8-2.6 4.1-4.2 2.3l-.4 1.6c.4-.1 1.2-.4 1.6-.6.5.4 1.4 1.1 1.8 1.4-.1-1.6.1-3.1 1.4-4.2 1.6.2 2.6 1.8 4 2.5 1.5 1.7-.3 2.9-1.4 4.1-1.2-.3-2.2-1-3.2-1.8-1.1.9-2.6 2.4-4.2 1.6-2.3-1.1-1.7-3.9-1.6-5.9-7.1-4.1-13.6-8.9-20.8-12.8-2.1-2.6-6.6-2.6-8.8-.1-1.9-.7-3.6-1.6-5-3.1-1.9.2-2.3-2.3-4.2-2.1l-.7-1.1c2.3-.8 3.6-2.4 4.6-4.5 2.2-.1 4.3 0 6.5-.1.2-.2 0-1.5-.1-2.2z"/><path class="st0" d="M120.4 158.5c2.2.5 6.6 2.6 4.6 5.4-.8 1.4-1.4 2.8-2.1 4.3-1.1-.7-2.2-1.4-3.5-1.5-1-1-2.2-1.7-3-2.9.6-2.2 2.3-3.9 4-5.3z"/><path class="st0" d="M104.1 167.2c1.7-2.5 3.6-5.9 7.1-5.9 3.9 1.9 7.1 5 10.7 7.4 2.6 1.3 4.7 5 2.6 7.6-5.7 7.7-11.6 15.3-17.3 22.9 1-1.3 2.5-1.7 3.8-.6 6.5 3.9 14.5 3.9 20.9 8 7.7 5.3 12.4 14.5 12.5 23.9.1 2-.4 4.1.7 5.9 4.1 7.5 6.5 16.5 4 24.9-3.6 9.7-9.2 19.2-17.9 25.1-3.3 1.5-7.1 3.7-10.8 3-3.6-.5-7.4-.5-10.6-2.4-4.3-2.2-7.2-6.6-8.3-11.3-3.7 2-8 1.9-11.9.8-4.2 4.9-11.3 6.3-17.4 4.9-9.2-1.8-16.9-8.2-21.9-15.9-3.2-5-5.2-11.2-3.8-17.2.9-4.9 3.5-9.2 6.3-13.3 4.2-6.1 7.1-13.3 12.9-18.3 4-3.4 8.4-6.6 13.2-8.9-1-1.6-2.2-3.2-1.8-5.2 9.4-11.5 17.9-23.7 27-35.4zm5.1-3.8c-1.3 1.8 1.6 2.4 2.6 3.3 3.7 3 7.6 5.7 11.3 8.6.1-.4.2-1.3.2-1.7-4.8-3.2-9.3-7.2-14.1-10.2zm-2.6 36.6c-1.9 3.2-4.4 6-6.6 9.1-2.1 2.5-3.6 5.7-6.7 7.2-1.7.5-3.3-.3-4.5-1.3-2.6-2.1-5.6-3.7-8-6.1-.1.3-.4 1-.5 1.4-3 2.5-6.1 4.9-9.4 7-5.8 3.7-9.1 9.9-12.4 15.7-3 5.6-7.3 10.7-8.6 17.1-1 4.3.2 8.8 2.3 12.5 4.6 6.9 10.8 13.6 19.1 15.6 5.2 1.4 10.6-.3 15.1-3l-.5-.8c-4.5-2.7-9.8-5.4-12.7-10-2.6 1.6-.3 5.5-2.8 7.3-4.5 3.5-11.1-.7-11.7-5.9l-1.5.5c.5-1.5 1.9-2.7 1.4-4.4-2.1-.4-3.3 1.2-4.7 2.2-.1-3.5 3.2-6.2 6.4-6.7 1.8-.3 3.4-2 2.2-3.8 1.9 1.4 2 4.1.8 6-.8 1.1-3.1 2.4-1.2 3.7 3.5.5 6.2 3.5 5.4 7.1 2.2-.8 3.2-3 4-5 0-.6-.1-1.8-.2-2.5-4.1-4.2-7.6-9.4-8.9-15.1 6 11.8 16.2 21.8 28.7 26.3 4.3 1.6 9.8-.3 12.1-4.3-11.5-10.8-18.8-25.2-23.8-40 3.4 5.3 5.7 11.1 9.1 16.5 4.9 7.9 9.8 16.4 17.6 21.8 4.1 1.2 8.7-.1 12-2.6 3-2.3 2.9-6.6 3.4-10 .7-14-3.7-27.5-7.1-40.8.1.5.4 1.4.6 1.9 6.6 13.8 10.4 29.6 7.6 44.8 7.7-.6 14-6.7 16.4-13.7 3.2-9.3 3.5-20-.7-29-3.2-6.7-10-11.1-17.2-12.6-5.1-1.2-9.5-4.3-14.5-6.1zm-27.2 2.7c-.4 1.4.1 1.9 1.5 1.6.4-1.3-.1-1.8-1.5-1.6zm3.1 2c.1.3.3.8.4 1.1 3.6 3 7.5 5.7 11.3 8.6-3.5-3.8-8.3-5.9-11.7-9.7zm61.1 35.6c-.6 7.2-3.1 14.9-9.1 19.4-3.6 3-8.3 4-12.7 5-2.9 5.9-10.5 6.9-16.4 6.9-1.5 5.2 2 10.5 6.9 12.3 6.3 3 14.4 2 19.5-2.8 7.5-6.6 14.1-15.3 15.2-25.6.4-5.2-.6-10.7-3.4-15.2zM59.1 262c.2 3.7 3.7 8.5 7.9 7.7l-.3-1.5c-3.3-.6-6.2-3-5.9-6.6l-1.7.4z"/><path class="st0" d="M191.3 168.5c1.5.1 3.9-.8 4.8 1 1.3 1.9-.2 5.6-2.8 4.8-1.3-.1-2-1.4-3-2.2.3-1.2.6-2.4 1-3.6z"/><path class="st0" d="M80.8 213.5c.4-.7 1.2-2.2 1.6-2.9 1.6 1.6 3.7 2.6 5.4 3.9-3.5 5.1-7.9 9.8-11.8 14.7-1.9 1.9-3.1 4.5-5.5 5.9 1.3-3.8 3-7.5 4.3-11.4 2.2-1.1 5.1-1.2 6.3-3.6 1.5-2 .9-4.7-.3-6.6z"/><path class="st0" d="M75 269.5c.4 3.5-2.2 6.2-5.5 6.8 2.1-2 4.8-3.6 5.5-6.8z"/><g><path class="st1" d="M175.5 104.8h.4c.8 1.1.8 2.2.1 3.4h-.5c-.7-1.2-.7-2.3 0-3.4z"/><path class="st1" d="M151.7 111.8c.9-1.8 2.4-3.3 3.1-5.2-.2 1.1-.2 2.1.2 3.2-1.3.3-2.3 1.2-3.3 2z"/><path class="st1" d="M158.2 106.7c.2.3.6.8.8 1.1-2.4 2.8-3.8 6.7-7.2 8.4 1.1-1 2.2-1.9 3.2-3-.1-.5-.3-1.5-.3-2 1-.5 2-1.1 3-1.7l.4-2.4.1-.4z"/><path class="st1" d="M160 110.1c.2-.1.7-.3.9-.4-1.1.7-1.4 1.7-1 3-1.3.5-2.3 1.5-3.3 2.4.7-1.9 2.3-3.3 3.4-5z"/><path class="st1" d="M172.7 117.4c1.3 3 3.8 4.9 6.3 6.8-1.4-1-2.6-2.2-4.4-2.3-1.3-1-1.8-2.9-1.9-4.5z"/><path class="st1" d="M148.7 118.9c.7-1 3.4-.2 2.1 1-.7 1-3.4.2-2.1-1z"/><path class="st1" d="M164.1 126.6c-.5-1.4-3.6-2.7-2.6-4.1l.7.5c.2.1.5.3.6.4 1 1.8 2.5 3.4 4.6 3.6.1.1.4.1.6.2v.4c.6 1.2 1.5 2.1 2.7 2.6 1.6 1.1 3.1 2.4 4.2 4-3.9-2-6.7-6-10.8-7.6z"/><path class="st1" d="M143.8 128.5c3.6 1.4 6.9 3.4 10.2 5.3-3 4.3-6.6 8.1-9.1 12.8 3.9 2.7 7.9 5.4 11.5 8.5.7-.1 2-.4 2.6-.5 2.6-4.6 6.7-8.3 9-13-4.4-2-8.7-4.3-12.8-6.9 3.3 1.5 6.2 3.8 9.6 5.2 6.4 2.8 12 7.2 18.5 9.6 2.8 1 5.9 1.5 8.2 3.6.5-.1 1.5-.3 1.9-.4l-1 2.3c4.3 1.2 9.2 1.9 12.4 5.3-3.5-.5-5.9-4.4-9.7-3.8-2-.7-3.9-1.7-6-2.3-.5-.3-1.4-.8-1.9-1.1-1.4-.9-2.7-1.9-3.7-3.1-3.6-1.4-6.9-3.4-10.3-5.2-3.1 4.1-5.7 8.5-9.4 12-.4 1.9-.2 4.1 1.6 5.3 3.6 2.5 6.7 5.6 10.7 7.4-4.8-1.3-7.8-5.8-12.2-7.9-.9-1.5-2.3-2.5-4-2.8.1.7.3 2 .3 2.6-1.2-1.5-2.7-2.8-4.6-3.3h.2c1 .4 2 .4 3-.1-4.3-4.6-9.7-7.8-14.6-11.5H143l-1 1 2.4 2c-.9-.6-1.8-1.1-2.7-1.7.3-.4.8-1.2 1-1.5.6-.1 1.8-.2 2.3-.2 2.3-4.4 5.9-7.9 8.5-12.2-3.1-1.4-6-3.2-9.1-4.6l-1 .4.4-1.2zm24.4 13.3c-2.3 5.2-6.7 9-9.7 13.8.4 1.7 2.5 2.7 3.9 3.7 2.2-3.9 5.4-7 7.7-10.7.9-1.5 3.1-2.5 2.8-4.5-1.7-.6-3.1-1.5-4.7-2.3z"/><path class="st1" d="M138.2 135.4c2.3-.7 3.2-3.4 4.7-5.2-.9 1.9-2.2 3.5-3.4 5.2-1.3.8-3.2 2.4-1.2 3.8-.3-.6-1-1.9-1.3-2.5-4.8.5-7.1 5-9.5 8.5l.2.4c1.2 1 2.2 2.1 3.2 3.3.6.2 1.8.5 2.4.7 2.1-2.8 4.3-5.6 6.5-8.2-.1-.4-.4-1.3-.6-1.7 1.7.6.6 2.2-.2 3.1-1.7 2-3.1 4.2-5.1 5.9-.3 3.4 3.5 4.3 5.5 6.2.9-1.4 2-2.7 2.9-4.2 1.1 1 2.4 1.5 3.9 1.5-.4-.8-1.4-2.3-1.8-3 1.4.9 2.7 1.8 4 2.9l-1.1 1.5c3 .6 6.4 1 8.1 3.9-.9-.1-2.7-1.7-3.1-.2.8 1.6 2.8 2.3 3.8 3.8-.1-.1-.4-.2-.5-.2-1.2-1.5-3.8-1.9-3.9-4.1-1.8-.1-3.4-1-4.3-2.7-1.8 0-3.1-2-4.9-1.6-.9.4-2.7 1.1-2 2.5 13.6 11.1 27.9 21.4 41.9 32 .7-.8 2.2-2.5 2.9-3.3-2-1.7-4-3.5-6-5.2 1.7.9 3.1 2.2 4.4 3.6 3.1-.9 6-2.5 9.3-2.5l-5.1 1.2c-2.1 1.9-3.1 4.6-5.2 6.4-3.2-1-5.4-4.1-8.4-5.6-1.3-1.1-2.4-2.7-4.3-2.7-.1 1.6-1.5 2.3-2.3 3.4-1.4-.6-3-2.6-4.5-.8-1.6 1.3-4.4.1-4.7-1.9-.1-1.3-.1-2.7-.1-4-4.6-2.5-9.1-5.2-13.3-8.3-1.3.6-2.6 1.2-3.9 1.7-2.4-.8-3.9-3.1-3.5-5.7-.4-.5-1.1-1.4-1.4-1.9-1.6-.1-3.3-.1-4.9 0-.7.7-1.4 1.3-2.1 2-.7-.4-2-1.1-2.6-1.5-1.1 2.6-2.9 4.8-4.1 7.3 2.8 1.2 4.3 5.4 2 7.8-4.1 5.1-7.8 10.5-11.8 15.6.2 1.5-1.3 2.1-2.1 3.1 4.3 2.2 8.7 4.3 13.4 5.2 7 1.6 13.8 5.4 17.3 11.8.2 1.1.6 2.3 1.8 2.8.2.6.6 1.8.8 2.3.2.4.7 1.3 1 1.8 1.1 3.9 1.5 7.9 1.3 12-.3 2 1.5 3.4 1.8 5.3.3 1.3.7 2.8 1.7 3.8.6 1.3 1 2.6 1.2 4 .8 6.3.6 12.7.3 19.1-.7 1.7-1.4 3.5-2.4 5-1.2.8-1.6 2.3-2 3.6-.6 1.5-1.4 2.9-2.3 4.1-1.6.6-2.5 2-2.7 3.6-2.3 3.8-6.7 5.8-11 6.5 8.8-5.9 14.4-15.3 17.9-25.1 2.5-8.4.1-17.4-4-24.9-1.2-1.8-.7-3.9-.7-5.9-.1-9.3-4.8-18.5-12.5-23.9-6.4-4.1-14.4-4.1-20.9-8-1.4-1.1-2.8-.7-3.8.6 5.8-7.6 11.7-15.2 17.3-22.9 2.2-2.6 0-6.3-2.6-7.6-3.6-2.4-6.8-5.5-10.7-7.4-3.5-.1-5.4 3.3-7.1 5.9-9.1 11.7-17.6 23.9-27 35.4 9.4-13.4 19.9-25.9 29.2-39.4 1.5-1.2 3.3-2.5 5.4-2 1.6.8 3 1.9 4.6 2.6.5-1.2.6-2.9 2.1-3.4.3-1.2 1.3-2.4.5-3.6-3.2-.1-6.7-1.6-7.6-4.9-2.2-.1-4.3-.2-6.5-.1v-3.8c2.2 0 4.3 0 6.5-.1 1-2.7 3.3-5 6.4-4.7.8-1 1.8-1.8 2.9-2.4 2.7.7 4.6 4.3 7.7 3 1.6-2.9 3.8-5.4 5.8-7.9 2.1 1.1 2.9-.8 3.1-2.7.5-.2 1.5-.7 2-.9-.2.6-2.3 2.4-.7 2.9zm-18.7 7.2c0 1.4 2.1 1.7 2.9 2.6.9 1.7 2.5 2.9 4.5 2.7-1.4.8-3.9 1.6-2.5 3.8 1.9 0 3.8 0 5.6-.1 0-.8-.1-2.5-.1-3.3-2.6-2.3-5.4-4.5-8.2-6.5-.4.2-1.6.6-2.2.8zm-8.4 5.9c-1 2.4 1.1 4.2 2 6.2 1.7.9 3.3 1.8 5.2 2.1 1.5-.4 2.6-1.6 4-2.2 1.2-1.9 2.3-3.9 1.8-6.3-.9-.8-1.5-1.7-1.7-2.9-2.3-.8-4.8-2.6-7.2-1.4-2.2.5-2.9 2.9-4.1 4.5zm-6.1-.3v3.4c1.9 0 3.8 0 5.6-.1v-3.4c-1.8.1-3.7.1-5.6.1zm25.2 1.1c.1.6.3 1.9.4 2.6-2.2.1-4.3 0-6.5.1-1.1 2.1-2.4 3.6-4.6 4.5l.7 1.1c1.9-.2 2.3 2.3 4.2 2.1 1.4 1.5 3.1 2.4 5 3.1 2.1-2.6 6.7-2.6 8.8.1 7.2 3.9 13.7 8.7 20.8 12.8-.1 2-.7 4.8 1.6 5.9 1.6.8 3.1-.6 4.2-1.6.9.8 2 1.4 3.2 1.8 1.1-1.2 2.9-2.4 1.4-4.1-1.4-.7-2.4-2.3-4-2.5-1.3 1.1-1.5 2.6-1.4 4.2-.4-.4-1.3-1.1-1.8-1.4-.4.2-1.2.4-1.6.6l.4-1.6c1.6 1.9 3.9-.4 4.2-2.3-7.8-6.1-16-11.9-23.6-18.1-4.4-1.9-7.2-6.2-11.4-7.3zm-9.8 9.2c-1.7 1.4-3.4 3.1-4 5.3.7 1.2 2 2 3 2.9 1.3.1 2.4.8 3.5 1.5.7-1.4 1.4-2.9 2.1-4.3 2-2.8-2.4-4.9-4.6-5.4zm17.9 5.6c-1.1 3.4 4.7 6.3 5.9 2.4-2-.7-3.7-3.3-5.9-2.4z"/><path class="st1" d="M178.6 137.1c.2.1.7.3.9.4 1.8.9 3.9 1.6 5.7.3-1.7 2.3.4 4.7 2.8 5.2 1.2 1.2 2.5 2.6 4.3 2.5.2.5.4 1 .5 1.5-.8-2-2.4-1.2-3.8-1.1-.9-3.1-5.4-3.1-5.6-6.7-1.8-.1-3.7-.5-4.8-2.1z"/><path class="st1" d="M206.8 144.5c3.7 1.5 6.2 4.8 9.8 6.5 1 3.3 6.1 3.3 6.4 7-2.3-3.3-6.3-4.7-9.3-7-1.8-2.8-5.4-3.4-6.9-6.5z"/><path class="st1" d="M203.8 145.8c1.6-.5 2.4 1.8 3.5 2.6 1 1.6 4.4 1.4 3.4 3.9 3.1 1.7 7.6 2.5 8.8 6.4.4 0 1.1.1 1.5.2-.7.3-1.4 1.2-2.1 1-.6-2-2.7-2.7-4.1-4-2.5-1.4-4.5-3.5-6.9-5.1-1.5-1.7-5.4-1.9-4.1-5z"/><path class="st1" d="M156.4 161.3c1.4.7 2.5 1.8 3.7 2.9 2.8 1.5 1.9-1.9.4-2.9 2.1 1.1 3.9 2.8 5.8 4.3-.4.1-1.4.4-1.8.6.9 2.2 3.1 3.5 4.6 5.2-1.7-1.3-3.1-2.9-5-3.8-.3-.4-.8-1.3-1.1-1.8-1.1-.3-2.1-.6-3.2-1-1-1.3-2.1-2.6-3.4-3.5z"/><path class="st1" d="M176.9 166.8c1.5-1.8 3.1-3.5 4.6-5.3-1.2 2.2-4.1 4.2-2.7 7 1-1.5 2.1-3 3.2-4.4-1.6 3.1-4.3 5.6-5.6 8.9-1.4-.5-2.9-.6-4.3-.1 2.6 1.6 5 3.4 7.2 5.4-3-2.2-6.1-4.2-8.9-6.6 1 .1 2.1.3 3.1.4v-1.5c2.4 2.9 6.7-2.5 3.4-3.8z"/><path class="st1" d="M182.3 163.7c-.1-1.3.4-2.2 1.7-2.5.3 1.5-.3 2.3-1.7 2.5z"/><path class="st1" d="M194.9 177.2c1.8-.4 3.2-1.5 4.4-3-.6 1.3-1.6 2.4-2.9 2.8-1.7 0-1.4 2.2-3 2.3.5-.6 1-1.3 1.5-2.1z"/><path class="st1" d="M106.6 200c5 1.8 9.5 4.9 14.7 6 7.1 1.5 14 5.8 17.2 12.6 4.2 9 3.9 19.7.7 29-2.4 7.1-8.7 13.2-16.4 13.7 2.8-15.2-1.1-31-7.6-44.8-.2-.5-.4-1.4-.6-1.9 3.4 13.4 7.8 26.9 7.1 40.8-.5 3.4-.4 7.6-3.4 10-3.4 2.5-7.9 3.8-12 2.6-7.8-5.5-12.7-13.9-17.6-21.8-3.3-5.3-5.7-11.2-9.1-16.5 5 14.8 12.3 29.2 23.8 40-2.3 4-7.8 5.9-12.1 4.3-12.6-4.5-22.8-14.5-28.7-26.3 1.3 5.8 4.8 11 8.9 15.1 0 .6.1 1.8.2 2.5-.8 2-1.8 4.2-4 5 .8-3.7-1.9-6.6-5.4-7.1-1.9-1.3.4-2.6 1.2-3.7 1.2-1.9 1.1-4.6-.8-6 1.2 1.8-.4 3.6-2.2 3.8-3.3.5-6.5 3.2-6.4 6.7 1.4-1 2.6-2.6 4.7-2.2.5 1.7-1 2.9-1.4 4.4l1.5-.5c.6 5.2 7.2 9.3 11.7 5.9 2.5-1.9.3-5.8 2.8-7.3 2.9 4.6 8.1 7.3 12.7 10l.5.8c-4.5 2.7-9.9 4.4-15.1 3-8.4-2-14.5-8.7-19.1-15.6-2.1-3.8-3.3-8.3-2.3-12.5 1.3-6.4 5.6-11.5 8.6-17.1 3.3-5.8 6.6-12 12.4-15.7 3.3-2.1 6.3-4.5 9.4-7 .1-.3.4-1 .5-1.4 2.4 2.4 5.3 4 8 6.1 1.3 1 2.9 1.9 4.5 1.3 3.1-1.5 4.6-4.7 6.7-7.2 1.9-3.1 4.5-5.8 6.4-9zm-25.8 13.5c1.2 2 1.8 4.7.3 6.7-1.2 2.4-4.1 2.6-6.3 3.6-1.3 3.8-2.9 7.5-4.3 11.4 2.4-1.4 3.6-4 5.5-5.9 3.9-4.9 8.3-9.6 11.8-14.7-1.8-1.4-3.8-2.4-5.4-3.9-.4.5-1.2 2-1.6 2.8zm46.4 5.7c-.7 3.1-3.5 5.1-4.2 8.2.4 2.8 1.2 5.4 1.6 8.2.3 2.4 1.9 5.1 4.5 5.4-.6 1.1-1.4 1.9-2.4 2.5-.8 2.9 1.8 6.8 5 5.3 3.4-2.3 6.1-6.2 6.3-10.3-1.7-3.8-.9-8.2-1.9-12.2-.3-2.3-1.6-4.5-1.1-6.9-.3.5-1 1.4-1.3 1.9-2.1-1-4.2-2.2-6.5-2.1zm-24.8 7.1c-.8 2-1.7 3.9-2.3 6 .5-.2 1.5-.5 2.1-.7 2.7 4.6 4.6 9.7 6 14.7-.3.8-.8 2.3-1 3 2.7-2.3 4.1 2.9 6.6 1.8 1-2.5 1.6-5.1 2.3-7.7-.5.4-1.4 1.1-1.9 1.5-2.3-4.7-3.4-10-5.9-14.6.2-.7.6-2.2.8-3-.4.4-1.2 1.3-1.6 1.7-1.7-.8-3.2-2-5.1-2.7zm-8.3 3.7c-1.4 2.6-2.1 5.4-3.3 8.1.4-.3 1.2-1 1.6-1.3l.8.4c2 4.8 4 9.7 6.4 14.3-.3.9-.6 1.7-.8 2.6.8-.3 1.5-.8 2.2-1.4 1.4 1.1 2.8 2.3 4.6 2.6.8-2 1.8-4 2.9-5.9-1.4.3-3.4.7-3.9-1.2-2.2-4.6-4-9.4-6-14.1-.9-1.8-2.7-3.2-4.5-4.1zm-23 12.3c1.1 1.2 1.9 2.4 2.3 4 1.9.1 3.3-2.3 2-3.8-1.3-1.1-2.9-.6-4.3-.2zm-1.1 1.8c-.1 1.8-1.7 3.6-.5 5.3 1.7 3.4 3.8 6.7 6.4 9.5 2.1 1.9 3.1 5.4 6.7 4.5.2-1.2.6-2.3 1.2-3.4-2.9.5-4.4-2.4-6.1-4.2-2.3-3.6-5.2-6.9-6-11.2-.4-.1-1.3-.4-1.7-.5zm6.4 8.1c.7-.2 2.2-.6 3-.8 2.9 2.7 5.3 6 7.8 9.1 1.7 1.9.6 4-.7 5.7 1.7-1 3.4-2.4 3.5-4.5 1.2-5.3-3.4-9-6-13-1.2-2-3.9-2.3-6-1.9-1.1 1.5-1.1 3.6-1.6 5.4zM75 269.5c-.7 3.2-3.3 4.8-5.5 6.8 3.3-.6 5.8-3.3 5.5-6.8z"/><path class="st1" d="M76.7 205.4c.1-.9.2-1.8.4-2.7-.3 2 .9 3.6 1.8 5.2-4.8 2.2-9.2 5.5-13.2 8.9-5.8 4.9-8.7 12.1-12.9 18.3-2.7 4.1-5.4 8.4-6.3 13.3-1.4 5.9.6 12.2 3.8 17.2 5 7.7 12.7 14.2 21.9 15.9 6.1 1.4 13.2 0 17.4-4.9 4 1.1 8.3 1.2 11.9-.8 1.1 4.7 3.9 9.1 8.3 11.3 3.2 2 7 1.9 10.6 2.4-5.5.6-12.2 1.8-16.2-3-.2-1.1-.8-1.7-1.8-1.9l-1.1-2.2c-.4-1-.9-2-1.2-2.9-3.3.5-7.1-1-10 .9-4.6 3.9-11 4.1-16.7 3.6-11.3-.8-21-8.7-26.2-18.4-.8-1.7-1.9-3.3-1.8-5.3.4-1.1.1-2-.9-2.6l-.3-.9c.1-3.2.1-6.3.1-9.5l.4-.8c.7-.8 1-1.6.8-2.7v-1.4c1.6-.9 1.7-3.3 2.6-4.8 1.2-2.5 3-4.6 4.4-7 2.7-4.2 4.8-8.9 8.2-12.7 4.3-5.4 10.5-8.6 16-12.5z"/><path class="st1" d="M79.4 202.7c1.3-.2 1.8.3 1.5 1.6-1.3.3-1.8-.2-1.5-1.6z"/><path class="st1" d="M82.5 204.7c3.4 3.8 8.3 5.8 11.7 9.6-3.8-2.9-7.7-5.5-11.3-8.6-.2-.1-.4-.7-.4-1z"/><path class="st1" d="M126.5 223.6c2.3-.3 4.7 1.1 5 3.4.6 3.2 1.9 6.8 0 9.8-1.3-.4-2.5-1.4-2.6-2.8-.7-3.5-1.7-6.9-2.4-10.4z"/><path class="st1" d="M129 239.9c1.1-1.3 2.3-2.5 3.5-3.6 1.9 3.6 2.8 9.4-1.3 11.8l-1.1-.2c1.4-2.8 0-5.5-1.1-8z"/><path class="st1" d="M143.6 240.3c2.7 4.5 3.8 10 3.4 15.2-1.1 10.3-7.6 18.9-15.2 25.6-5.2 4.8-13.2 5.8-19.5 2.8-4.9-1.8-8.4-7.1-6.9-12.3 5.9 0 13.5-.9 16.4-6.9 4.4-1.1 9.1-2.1 12.7-5 6.1-4.5 8.5-12.1 9.1-19.4z"/><path class="st1" d="M59.1 262l1.7-.5c-.3 3.6 2.6 6 5.9 6.6l.3 1.5c-4.2.9-7.7-3.9-7.9-7.6z"/></g><g><path d="M162.2 123c.2.1.5.3.6.4-.2-.1-.5-.3-.6-.4z" fill="#535353"/></g><g><path d="M167.4 127c.1.1.4.1.6.2-.2-.1-.5-.1-.6-.2z" fill="#454545"/></g><g><path d="M168 127.2c1.6 0 2.9 1.4 2.7 3-1.2-.5-2.1-1.4-2.7-2.6v-.4z" fill="#38393a"/></g><g><path d="M187.9 143c.4-.1 1.1-.2 1.5-.3 1.1.5 3.1 1.4 2.9 2.8-1.9.1-3.2-1.2-4.4-2.5z" fill="#4a4a4b"/></g><g><path d="M184.1 157.3c1-1.5 2.2-2.9 3.4-4.3.5.3 1.4.8 1.9 1.1-.8 1.1-1.5 2.2-2.3 3.3-1-.1-2-.1-3-.1z" fill="#373838"/></g><g><path d="M155.4 157.5c.1.1.4.3.6.4-.1 0-.4-.2-.6-.4z" fill="#575757"/></g><g><path d="M182.4 160.2c.4-1.3 1.5-2.7 3-2.4 1.6.6 0 2-.7 2.6-.7-.6-1.5-.6-2.3-.2z" fill="#434243"/></g><g><path d="M109.2 163.4c4.9 3 9.3 7 14.1 10.2-.1.4-.2 1.3-.2 1.7-3.7-3-7.6-5.6-11.3-8.6-1-.9-3.9-1.4-2.6-3.3z" fill="#2d2e2f"/></g><g><path d="M199.6 166.6c1.1-1.4 2.3-2.8 3.7-4-.2 2.3-2.3 3.9-3.2 6-.2 1.9.4 4-.8 5.7-1.1 1.4-2.5 2.6-4.4 3-2.4-.4-5.2-.7-6.5-3.1-.8-2.3-1.1-6.2 1.9-6.8-.5 2-2 4.5-.4 6.3 1.3 2.3 5.3 2.7 6.7.3 1-1.3 2-3.1.8-4.6-1.3-2.7-4.7-2.5-7.2-2 .2-.6.5-1.8.6-2.4l.6-.4c3.1-1.1 5.8.5 8.2 2z" fill="#181919"/></g><g><path d="M138.3 164.1c2.3-.9 4 1.7 5.9 2.4-1.3 3.9-7.1 1-5.9-2.4z" fill="#010101"/></g><g><path d="M166.3 165.5c.1.1.3.2.4.3-.1 0-.3-.2-.4-.3z" fill="#4a4a4a"/></g><g><path class="st13" d="M188.4 176.2c-2.9-3.5-2.1-9.8 2.6-11.3-.2.6-.5 1.8-.6 2.4-3.1.7-2.7 4.6-1.9 6.8 1.3 2.4 4.1 2.7 6.5 3.1-.5.7-1 1.4-1.6 2.1l-.3.3c-.8-2.1-3.1-2.3-4.7-3.4z"/><path class="st13" d="M190.4 167.3c2.5-.5 5.9-.7 7.2 2 1.1 1.5.2 3.3-.8 4.6-1.4 2.4-5.4 2-6.7-.3-1.8-1.8-.2-4.3.3-6.3zm.9 1.2c-.4 1.2-.8 2.4-1.1 3.7 1 .7 1.7 2.1 3 2.2 2.6.7 4.1-2.9 2.8-4.8-.8-1.8-3.1-1-4.7-1.1z"/></g><g><path d="M141.5 212.5c1.5-.8 2.9 1.7 1.8 2.8-1.2-.5-1.6-1.7-1.8-2.8z" fill="#5b5b5b"/></g><g><path d="M144.1 217.6l.9-.1.5.9-.4.9c-.3-.3-.7-1.2-1-1.7z" fill="#515151"/></g><g><path d="M148.3 236.7c1.8-.6 3.1 2.6 1.7 3.8-1-1.1-1.4-2.5-1.7-3.8z" fill="#424242"/></g><g><path d="M45.4 242.3c-.9-1.6.4-5.3 2.6-4.8-.9 1.5-1 3.9-2.6 4.8z" fill="#3d3d3d"/></g><g><path d="M44.6 246.4c-1.1-1.6-.8-2.5.8-2.7.2 1-.1 1.9-.8 2.7z" fill="#636363"/></g><g><path d="M151.2 244.4c.6 1.2.8 2.5.9 3.8.2 3.8.2 7.6 0 11.4-.1 1.3 0 2.6-.6 3.9.3-6.4.5-12.7-.3-19.1z" fill="#aeaeae"/></g><g><path d="M44.2 256.6c-.8-3-1.2-6.7.1-9.5-.1 3.2-.1 6.4-.1 9.5z" fill="#111"/></g><g><path d="M44.4 257.5c1 .6 1.3 1.5.9 2.6-1.4-.1-1.7-1-.9-2.6z" fill="#8b8b8b"/></g><g><path d="M147.2 272.1c.3-1.4.8-2.8 2-3.6 1 1.3-.2 4.3-2 3.6z" fill="#4e4e4e"/></g><g><path d="M142.2 279.9c.2-1.6 1.1-3 2.7-3.6.9 1.4-1.2 4.3-2.7 3.6z" fill="#6b6b6b"/></g><g><path d="M90.1 280.2c2.9-1.8 6.7-.4 10-.9.4 1 .8 2 1.2 2.9-2.8-3.4-7.5-1.8-11.2-2z" fill="#171717"/></g><g><path d="M102.4 284.4c1 .1 1.6.8 1.8 1.9-1.7.4-2.3-.2-1.8-1.9z" fill="#3e3e3e"/></g></svg>